<svg width="796" height="183" viewBox="0 0 796 183" fill="none" xmlns="http://www.w3.org/2000/svg">
<path d="M557.312 84.4701C553.871 84.3819 550.606 85.9702 547.076 85.3525C546.547 85.2643 546.194 85.6172 546.282 86.1467C546.635 88.0879 545.4 87.9997 544.076 87.9997C537.282 87.9997 530.399 87.9997 523.604 87.9997C520.869 87.9997 521.222 87.6467 521.222 90.4704C521.222 91.441 521.222 92.4117 521.222 93.2941C521.222 94.5294 520.516 95.4118 519.281 95.3236C517.781 95.2353 517.604 95.9413 517.604 97.1766C517.604 99.2944 517.604 99.3826 515.31 99.3826C513.898 99.2944 513.457 99.8238 513.633 101.147C513.722 102.03 513.633 102.912 513.633 103.795C513.633 106.177 513.633 106.265 511.163 106.442C510.28 106.53 510.016 106.883 510.104 107.677C510.104 108.295 510.104 108.824 510.104 109.442C510.104 109.795 510.104 110.324 509.663 110.324C506.309 110.324 507.015 113.148 506.662 114.913C506.398 116.325 506.398 117.207 504.633 117.031C503.221 116.854 502.603 117.825 502.603 119.237C502.603 120.119 502.427 120.737 501.456 120.56C500.309 120.384 499.78 120.913 499.956 122.06C500.221 123.649 499.692 124.443 497.927 124.09C496.603 123.825 496.338 124.531 496.338 125.678C496.338 127.972 496.25 128.06 494.221 127.972C492.809 127.884 492.191 128.325 492.368 129.825C492.544 131.149 492.103 131.767 490.691 131.59C489.985 131.502 489.191 131.59 488.485 131.59C487.426 131.59 486.103 131.325 485.22 131.767C484.338 132.296 484.955 133.62 484.867 134.678C484.779 135.914 483.897 135.561 483.279 135.561C482.044 135.473 481.249 135.649 481.249 137.237C481.249 138.385 480.455 139.09 479.132 139.09C476.749 139.09 474.278 139.09 471.896 139.09C470.925 139.09 470.131 139.179 470.308 140.502C470.484 141.473 469.955 141.561 469.072 141.826C461.748 143.591 454.336 142.179 446.924 142.708C445.512 142.797 444.806 142.355 445.071 140.943C445.336 139.355 444.542 139.09 443.218 139.179C440.747 139.267 438.188 139.179 435.718 139.267C434.571 139.267 433.865 139.09 434.041 137.767C434.306 136.09 433.6 135.473 432.012 135.737C430.512 136.002 429.806 135.384 430.07 133.796C430.335 132.208 429.806 131.414 428.129 131.678C426.806 131.943 426.364 131.237 426.541 130.09C426.806 128.502 426.188 127.884 424.6 128.149C423.364 128.325 422.835 127.884 423.011 126.56C423.099 125.502 422.923 124.354 423.011 123.296C423.099 122.06 422.835 121.443 421.335 121.531C419.04 121.619 419.04 121.531 419.04 119.148C419.04 116.766 419.04 114.472 419.04 112.089C419.04 111.118 418.952 110.413 417.629 110.501C416.129 110.589 415.423 109.707 415.423 108.207C415.423 103.265 415.246 98.3237 415.511 93.4705C415.599 91.8822 416.481 90.2939 416.393 88.5291C416.393 87.9114 417.011 87.9997 417.452 87.9997C419.04 88.2644 419.04 87.2938 419.04 86.1467C418.952 83.6759 419.129 81.117 419.04 78.6463C418.952 77.3227 419.393 76.8815 420.805 76.8815C423.188 76.9697 423.099 77.2344 423.099 74.6755C423.099 73.5284 423.188 72.293 423.099 71.1459C423.011 69.9105 423.364 69.1164 424.776 69.3811C426.364 69.6458 426.894 68.9399 426.717 67.4398C426.629 66.7339 426.717 65.9398 426.717 65.2339C426.717 62.5867 426.717 62.5867 429.188 62.3219C429.894 62.2337 430.247 62.0572 430.247 61.2631C430.247 60.6454 430.247 59.9395 430.247 59.3218C430.247 58.2629 429.982 56.9393 430.423 56.0569C430.953 55.1745 432.276 55.7922 433.335 55.704C434.571 55.6157 434.218 54.7333 434.218 54.1157C434.041 52.5273 434.659 51.9097 436.159 52.1744C437.394 52.3509 437.924 51.9097 437.747 50.5861C437.571 48.9978 437.747 47.7624 439.865 48.2036C440.659 48.3801 440.924 47.9389 440.836 47.1447C440.747 45.4682 441.542 44.5858 443.306 44.674C444.453 44.7622 444.453 44.0563 444.365 43.2622C444.277 41.5856 444.983 40.7032 446.748 40.7032C447.542 40.7032 447.895 40.5267 447.983 39.6443C448.16 37.6148 448.689 37.1736 450.63 37.1736C452.042 37.1736 453.189 37.1736 452.836 35.2324C452.748 34.8794 453.013 34.4382 453.454 34.5264C455.131 34.7029 456.366 33.1146 458.131 33.5558C459.278 33.9088 459.366 33.1146 459.454 32.144C459.542 30.2027 460.16 29.6733 462.013 29.585C462.631 29.585 463.16 29.585 463.778 29.585C466.16 29.585 466.249 29.585 466.425 27.1143C466.513 26.2319 466.866 26.0554 467.661 26.0554C469.161 26.0554 470.749 25.9672 472.249 26.0554C473.396 26.1437 474.102 25.879 473.926 24.4671C473.749 23.2318 474.279 22.7023 475.514 22.8788C477.455 23.2318 478.955 21.467 480.896 21.9082C481.426 21.9964 481.426 21.2905 481.426 20.9375C481.161 19.3492 482.132 19.3492 483.279 19.3492C485.485 19.4375 487.691 19.3492 489.897 19.3492C491.75 19.3492 492.368 18.908 492.456 17.055C492.544 15.8196 493.162 15.8196 494.044 15.8196C498.721 15.8196 503.486 15.8196 508.163 15.8196C518.045 15.8196 527.84 15.8196 537.723 15.8196C539.046 15.8196 540.105 15.8196 539.841 17.5844C539.752 17.9374 539.929 18.4668 540.37 18.3786C541.782 18.1139 542.929 19.0845 544.164 19.3492C545.841 19.7022 546.988 18.2021 548.665 18.3786C549.194 18.4668 549.106 17.6727 549.106 17.3197C548.929 16.1726 549.459 15.7314 550.606 15.8196C550.782 15.8196 550.871 15.8196 551.047 15.8196C553.782 15.8196 553.871 15.8196 553.959 13.1724C553.959 12.29 554.224 11.8488 555.194 11.8488C558.018 11.9371 560.93 11.9371 563.754 11.8488C564.724 11.8488 565.077 12.2018 564.989 13.1724C564.989 15.9961 564.901 18.7315 564.989 21.5552C564.989 22.7906 564.459 23.1435 563.401 22.967C561.724 22.7023 561.195 23.4082 561.371 24.9966C561.459 25.7907 561.459 26.5849 561.371 27.379C561.283 28.6144 561.283 29.585 563.136 29.585C564.459 29.4968 564.989 30.6439 564.989 31.9675C564.901 33.2911 564.636 34.7912 566.842 34.35C567.195 34.2617 567.636 34.5264 567.548 34.9676C567.371 36.556 568.871 37.7913 568.518 39.4679C568.254 40.7915 569.401 40.5267 570.107 40.5267C571.077 40.5267 571.43 40.7032 571.607 41.7621C573.107 48.9977 572.136 56.4099 572.401 63.6455C572.489 65.9398 571.96 66.4692 569.754 66.4692C568.607 66.4692 568.43 66.9986 568.43 67.9693C568.518 69.2929 568.342 70.6165 568.43 71.9401C568.607 73.5284 568.166 74.3225 566.401 74.0578C565.165 73.7931 564.724 74.4108 564.812 75.6461C564.901 76.4403 565.165 76.705 565.871 76.6168C566.754 76.6168 567.636 76.6168 568.518 76.6168C571.077 76.6168 571.166 76.6168 571.342 74.1461C571.43 72.7342 572.401 73.0872 573.107 73.1754C574.254 73.1754 575.225 73.1754 574.96 71.5871C574.783 70.7047 575.313 70.44 576.107 70.5282C577.784 70.5282 579.46 70.6165 581.137 70.5282C582.107 70.5282 582.549 70.7929 582.372 71.7636C582.284 72.7342 582.549 73.1754 583.696 73.1754C584.843 73.1754 584.931 72.7342 585.019 71.7636C585.108 69.9988 586.078 69.2046 587.843 69.2046C591.549 69.2046 595.343 69.2929 599.049 69.2046C600.461 69.2046 601.167 69.5576 600.902 70.9694C600.638 72.5577 601.167 73.5284 603.02 73.1754C604.167 72.9989 604.52 73.5284 604.52 74.6755C604.432 76.1756 604.52 77.7639 604.52 79.264C604.432 80.3228 604.785 80.6758 605.932 80.6758C608.138 80.764 608.579 81.2935 608.579 83.4112C608.579 86.5879 608.579 89.7645 608.579 92.8529C608.579 93.8235 608.668 94.3529 609.903 94.3529C610.962 94.3529 611.315 93.9117 611.227 92.9411C611.138 91.7057 611.315 90.4704 611.227 89.235C611.138 88.0879 611.579 87.5585 612.727 87.735C614.668 88.0879 614.933 87.0291 614.756 85.529C614.668 84.6466 614.756 83.7642 614.756 82.8818C614.756 81.4699 615.55 80.6758 616.786 80.764C618.374 80.8523 618.992 80.3228 618.727 78.8228C618.462 77.2344 619.08 76.4403 620.756 76.7932C622.08 77.058 622.433 76.352 622.256 75.1167C621.992 73.5284 622.698 73.0872 624.198 73.1754C626.58 73.2637 629.051 73.2637 631.433 73.1754C633.022 73.0872 634.257 74.5873 635.934 74.1461C636.022 74.1461 636.287 74.4108 636.287 74.5873C636.287 76.5285 637.698 78.1168 637.257 80.1463C637.081 81.2935 636.816 81.6464 635.669 81.6464C633.198 81.6464 633.198 81.7347 633.198 84.2936C633.198 84.8231 633.11 85.3525 633.198 85.7937C633.463 87.2938 632.845 87.9997 631.257 87.735C629.845 87.4702 629.492 88.1762 629.58 89.4998C629.669 90.9116 629.492 92.3234 629.58 93.647C629.669 94.9706 629.139 95.4118 627.904 95.2353C626.404 94.9706 625.786 95.5883 625.963 97.1766C626.051 97.9708 625.963 98.7649 625.963 99.5591C625.963 100.53 626.227 101.677 625.786 102.383C625.257 103.177 624.021 102.736 623.139 102.736C621.992 102.736 622.08 103.442 622.08 104.148C622.08 106.795 622.08 109.442 622.08 112.089C622.08 113.236 621.903 113.942 620.58 113.766C619.521 113.589 619.433 114.295 619.433 115.089C619.433 116.236 619.433 117.472 619.433 118.619C619.433 119.501 619.256 120.295 620.668 120.384C621.992 120.384 622.168 119.678 621.992 118.707C621.815 117.207 622.345 116.501 623.933 116.766C624.462 116.854 624.992 116.766 625.433 116.766C628.345 116.766 628.169 116.766 628.698 113.942C628.874 112.619 629.757 111.383 629.58 109.883C629.492 109.089 630.286 109.265 630.727 109.265C631.963 109.442 632.139 108.736 632.139 107.677C632.139 106.001 632.845 105.295 634.61 105.295C635.757 105.295 636.287 105.03 636.11 103.795C636.022 103.265 636.11 102.736 636.11 102.295C636.11 101.324 635.934 100.265 636.287 99.4708C636.728 98.6767 637.875 99.1179 638.757 99.1179C639.64 99.0296 639.64 98.5884 639.64 97.9708C639.64 96.4707 639.728 94.8824 639.64 93.3823C639.551 91.9705 639.993 91.441 641.404 91.7057C642.816 91.9705 643.434 91.441 643.258 89.941C643.169 88.6174 643.346 87.2938 643.169 85.9702C643.081 84.7348 643.346 84.1171 644.846 84.2054C647.14 84.2936 647.14 84.2054 647.14 81.8229C647.14 81.0287 647.14 80.2346 647.14 79.4404C647.14 77.058 647.14 76.9697 649.611 76.7932C650.758 76.705 650.758 75.9991 650.67 75.2932C650.317 73.4401 651.287 73.0872 652.876 73.1754C655.346 73.2637 657.905 73.2637 660.376 73.1754C661.435 73.1754 661.788 73.5284 661.788 74.5873C661.7 77.3227 661.7 80.0581 661.788 82.7053C661.876 84.0289 661.347 84.4701 660.111 84.2054C658.523 83.9407 658.082 84.6466 658.17 86.1467C658.258 88.6174 658.17 91.1763 658.17 93.647C658.17 94.6177 658.17 95.4118 656.846 95.2353C655.699 95.0589 655.788 95.7648 655.523 96.6472C654.464 100.441 654.729 104.324 654.729 108.207C654.729 109.265 654.199 109.442 653.317 109.354C651.729 109.089 651.552 109.883 651.552 111.207C651.64 113.766 651.64 116.325 651.552 118.884C651.464 120.207 652.081 120.295 653.14 120.295C654.287 120.295 654.817 120.031 654.64 118.795C654.376 117.207 654.905 116.413 656.582 116.678C657.817 116.942 658.347 116.236 658.17 115.089C657.905 113.413 658.258 112.354 660.288 112.707C661.523 112.972 661.788 112.177 661.7 111.118C661.523 109.618 661.964 108.912 663.553 109.177C664.523 109.354 664.876 108.824 664.788 107.942C664.612 106.177 665.406 105.206 667.17 105.206C668.053 105.206 668.318 104.853 668.318 104.059C668.318 100.353 668.318 96.5589 668.318 92.8529C668.318 92.0587 668.141 91.5293 667.259 91.6175C665.759 91.8822 665.582 90.9998 665.67 89.7645C665.759 88.3526 665.759 86.9408 665.67 85.6172C665.582 84.5583 665.847 83.8524 667.082 84.1171C668.318 84.2936 668.318 83.4995 668.318 82.6171C668.318 80.2346 668.318 77.9404 668.318 75.5579C668.318 73.7931 668.935 73.1754 670.788 73.0872C671.847 73.0872 672.288 72.9107 672.377 71.6753C672.465 69.9105 673.347 69.1164 675.2 69.1164C677.23 69.1164 679.348 69.1164 681.377 69.1164C683.407 69.1164 684.201 69.7341 684.289 71.7636C684.377 72.9107 684.73 73.1754 685.701 73.0872C686.142 73.0872 686.936 72.9107 686.848 73.7049C686.583 75.9109 688.083 77.7639 687.907 79.9699C687.642 83.323 687.907 86.7643 687.819 90.1174C687.819 91.1763 687.995 91.7057 689.23 91.7057C690.377 91.7057 690.907 91.441 690.907 90.1174C690.907 87.8232 690.995 87.735 693.113 87.735C694.26 87.735 694.437 87.1173 694.348 86.2349C694.172 84.9113 694.348 83.8524 696.113 84.1171C696.995 84.2054 696.995 83.5877 696.995 82.97C696.995 81.3817 697.79 80.4993 699.378 80.6758C700.878 80.764 701.055 80.1464 701.055 78.911C700.966 76.5285 700.79 76.6168 703.349 76.705C705.113 76.7933 705.731 76.2638 705.466 74.499C705.29 73.4401 705.731 72.9989 706.79 73.0872C708.202 73.1754 709.614 73.0872 710.937 73.0872C711.643 73.0872 711.908 72.9107 712.084 72.1165C712.526 69.2929 712.702 69.1164 715.526 69.1164C720.997 69.1164 726.556 69.2046 732.027 69.1164C733.615 69.1164 734.409 69.4694 734.056 71.1459C733.703 72.9107 734.586 73.3519 736.174 73.0872C737.762 72.8225 738.115 73.5284 738.115 75.0285C738.027 81.0287 738.027 87.1173 738.115 93.1176C738.115 94.7059 737.85 95.5001 736.086 95.1471C734.321 94.7941 733.88 95.6765 734.144 97.1766C734.321 98.5002 734.056 99.3826 732.468 99.1179C731.674 99.0296 731.497 99.5591 731.497 100.177C731.497 101.765 730.88 102.647 729.203 102.559C727.968 102.471 727.791 103.177 727.968 104.059C728.321 105.912 727.35 106.354 725.762 106.089C725.409 106.001 725.056 106.089 724.703 106.089C723.379 105.912 723.114 106.53 723.114 107.765C723.114 110.06 723.026 110.06 720.732 110.06C719.761 110.06 718.791 110.06 717.908 110.06C716.673 110.06 715.261 109.795 715.614 111.824C715.702 112.089 715.526 112.619 715.349 112.53C713.761 112.177 712.702 113.677 711.114 113.589C708.555 113.413 705.996 113.589 703.437 113.501C702.378 113.501 701.937 113.854 702.113 114.913C702.378 116.501 701.584 116.678 700.26 116.678C698.054 116.589 698.143 116.678 698.143 118.795C698.143 119.942 698.584 120.119 699.554 120.119C701.937 120.207 701.937 120.207 702.113 122.501C702.202 123.296 702.378 123.649 703.26 123.649C707.32 123.649 711.379 123.56 715.349 123.649C716.761 123.649 716.673 122.766 716.585 121.884C716.408 120.472 716.938 119.854 718.349 120.031C719.232 120.119 720.114 119.942 720.997 120.031C722.673 120.207 723.556 119.766 723.203 117.913C723.026 116.942 723.291 116.236 724.438 116.501C726.291 116.854 726.997 116.06 726.644 114.207C726.379 112.883 726.909 112.266 728.321 112.442C730.085 112.707 730.968 112.177 730.615 110.236C730.438 109.177 730.968 108.736 732.027 108.912C733.791 109.177 734.497 108.56 734.144 106.795C733.88 105.383 734.409 104.677 735.909 104.942C737.056 105.118 737.233 104.589 737.233 103.53C737.233 102.206 738.027 101.412 739.351 101.412C740.586 101.5 740.851 100.883 740.762 99.8238C740.674 99.1179 740.762 98.3237 740.762 97.6178C740.762 95.0589 740.762 95.0589 743.233 94.7059C743.674 94.6177 744.292 94.7059 744.204 94.0882C743.763 92.1469 745.527 90.6469 745.174 88.7056C744.998 87.6467 745.263 86.9408 746.586 87.1173C747.91 87.382 748.527 86.7643 748.263 85.4407C747.998 84.0289 748.527 83.323 750.028 83.5877C751.528 83.8524 751.969 83.0583 751.792 81.7347C751.704 80.6758 751.792 79.7052 751.792 78.6463C751.792 76.8815 752.41 76.0873 754.175 76.1756C755.675 76.2638 755.94 75.5579 755.763 74.3225C755.498 72.8225 756.293 72.4695 757.616 72.5577C760.263 72.646 762.91 72.646 765.558 72.5577C766.528 72.5577 766.97 72.8225 766.793 73.7931C766.617 75.7344 768.117 77.4109 767.764 79.3522C767.587 80.0581 768.381 80.0581 768.911 79.9699C770.323 79.7934 770.587 80.5876 770.411 81.6464C770.146 83.2347 770.94 83.7642 772.352 83.4995C774.117 83.1465 774.558 83.9407 774.382 85.6172C774.293 86.9408 774.382 88.2644 774.293 89.588C774.205 90.7351 774.646 91.2645 775.794 90.9998C777.735 90.6469 778 91.7057 777.823 93.2058C777.735 94 777.823 94.7941 777.823 95.5883C777.823 98.1472 777.823 98.2355 775.352 98.412C774.382 98.5002 774.293 98.9414 774.293 99.7356C774.293 101.147 774.205 102.559 774.293 103.883C774.382 105.118 774.029 105.559 772.705 105.559C770.323 105.559 770.323 105.648 770.323 108.03C770.323 108.824 770.234 109.618 770.323 110.413C770.411 111.56 770.146 112.177 768.823 112.089C767.411 112.001 766.793 112.883 766.793 114.295C766.793 116.06 766.793 117.825 766.793 119.589C766.087 119.589 765.293 119.589 764.587 119.589C763.705 119.589 763.616 120.119 763.705 120.737C763.881 121.531 763.175 122.59 764.322 123.031C765.822 123.649 766.705 122.943 766.793 121.266C766.793 120.648 766.793 120.119 766.793 119.501C768.293 119.501 769.881 119.501 771.382 119.501C772.44 119.501 773.146 119.325 772.882 118.089C772.617 116.325 773.323 115.707 774.999 115.972C776.411 116.236 777.117 115.707 776.852 114.207C776.588 112.354 778.264 110.942 777.823 109.089C777.735 108.471 778.352 108.471 778.794 108.56C780.029 108.736 780.47 108.295 780.47 106.971C780.47 105.295 781.176 104.589 782.941 104.589C784.088 104.589 784.529 104.236 784.441 103.089C784.353 102.559 784.441 102.03 784.441 101.589C784.441 100.618 784.265 99.5591 784.617 98.7649C785.059 97.9708 786.382 98.7649 787.088 98.3237C789.294 96.9119 791.677 97.706 794.059 97.5296C795.118 97.4413 795.647 97.7943 795.559 98.9414C795.471 101.942 795.471 104.942 795.559 107.942C795.559 108.824 795.471 109.618 794.324 109.442C793 109.265 792.912 109.971 792.912 111.03C793 112.089 792.824 113.236 792.912 114.295C793 115.53 792.736 116.148 791.235 116.06C788.941 115.972 788.853 116.06 788.941 118.442C789.029 120.119 788.5 120.737 786.912 120.472C785.853 120.295 785.235 120.737 785.412 121.884C785.5 122.413 785.412 122.943 785.412 123.384C785.412 124.443 785.676 125.766 785.235 126.649C784.706 127.531 783.382 126.913 782.323 127.002C781.088 127.09 781.353 127.972 781.441 128.59C781.617 130.178 781 130.708 779.5 130.531C778.882 130.443 778.176 130.531 777.558 130.531C776.588 130.531 775.441 130.266 774.735 130.708C773.94 131.237 774.382 132.472 774.382 133.355C774.382 134.237 773.94 134.502 773.146 134.414C771.558 134.414 769.881 134.502 768.293 134.414C767.058 134.326 766.705 134.855 766.881 135.914C767.146 137.59 766.528 138.208 764.852 137.943C763.793 137.855 762.646 137.943 761.587 137.943C760.175 137.943 759.381 137.237 759.381 135.914C759.469 134.502 758.763 134.326 757.616 134.414C756.293 134.502 754.969 134.326 753.645 134.414C752.233 134.502 751.616 134.149 751.792 132.649C751.969 131.325 751.969 130.09 749.939 130.443C749.586 130.531 749.145 130.355 749.233 129.914C749.675 127.796 748.086 126.031 748.263 123.913C748.527 120.472 748.263 117.031 748.351 113.589C748.351 112.266 747.91 112.001 746.674 112.001C745.439 112.001 745.263 112.442 745.263 113.589C745.263 116.413 745.174 116.413 742.615 116.942C741.733 117.119 741.733 117.56 741.821 118.178C742.086 119.854 741.645 120.913 739.615 120.472C738.556 120.295 738.115 120.737 738.292 121.795C738.468 122.943 737.85 123.119 736.88 123.119C734.409 123.207 734.321 123.207 734.409 125.502C734.409 126.737 733.968 127.266 732.821 127.09C731.321 126.825 730.615 127.443 730.879 129.031C731.144 130.531 730.35 130.796 729.115 130.708C728.409 130.619 727.615 130.708 726.909 130.708C725.409 130.619 723.997 130.355 724.085 132.737C724.085 133.531 723.291 134.855 721.614 134.678C719.32 134.502 717.026 134.678 714.82 134.59C713.585 134.502 712.967 134.943 713.232 136.179C713.585 137.943 712.702 138.208 711.114 138.208C708.731 138.12 706.261 138.208 703.878 138.208C702.113 138.208 701.407 137.679 701.319 135.914C701.231 134.855 700.878 134.678 699.996 134.678C697.613 134.678 695.142 134.59 692.76 134.678C691.525 134.767 691.172 134.237 691.172 133.002C691.172 130.708 691.083 130.619 688.877 130.708C687.642 130.708 687.024 130.443 687.289 129.119C687.554 127.708 687.024 126.825 685.436 127.178C684.024 127.443 683.671 126.825 683.76 125.502C683.848 121.884 683.76 118.266 683.848 114.736C683.848 113.501 683.495 113.06 682.259 113.148C681.289 113.236 680.406 113.236 679.436 112.442C678.465 111.56 677.23 112.442 677.23 113.766C677.142 116.06 677.142 116.148 674.936 116.148C673.788 116.148 673.7 116.678 673.7 117.648C673.612 120.031 673.259 120.384 670.877 120.56C669.994 120.648 669.641 120.913 669.729 121.707C669.906 123.119 669.2 123.384 668.053 123.207C666.465 122.943 665.935 123.737 666.2 125.149C666.465 126.825 665.759 127.443 664.17 127.178C662.67 126.913 661.964 127.531 662.229 129.119C662.406 130.355 661.964 130.884 660.641 130.796C659.405 130.708 658.17 130.884 656.935 130.796C655.699 130.708 655.082 130.972 655.17 132.472C655.258 134.767 655.17 134.767 652.787 134.767C650.405 134.767 647.934 134.678 645.552 134.767C644.14 134.855 643.61 134.502 643.699 133.002C643.787 130.619 644.052 130.796 641.404 130.796C640.787 130.796 640.081 130.708 639.463 130.796C638.228 130.884 637.522 130.708 637.522 129.119C637.522 127.443 634.522 126.472 632.845 127.619C632.316 127.972 631.875 128.149 631.345 128.149C630.375 128.061 629.933 128.502 630.11 129.384C630.286 130.619 629.58 130.884 628.521 130.796C627.021 130.619 626.404 131.061 626.492 132.649C626.668 134.943 626.668 134.767 624.374 134.767C621.903 134.767 619.345 134.678 616.874 134.767C615.55 134.855 614.933 134.502 615.021 133.002C615.197 130.619 615.374 130.796 612.815 130.796C612.109 130.796 611.315 130.796 610.609 130.796C608.226 130.796 608.226 130.796 608.05 128.413C607.962 127.355 607.52 127.178 606.726 127.266C605.491 127.443 605.226 126.913 604.873 125.678C603.991 122.854 604.167 120.031 604.079 117.207C603.991 115.619 602.491 116.06 602.138 116.325C600.814 117.383 599.314 117.119 597.814 117.119C596.843 117.119 596.49 117.56 596.579 118.442C596.667 119.237 596.49 119.942 595.432 119.766C594.108 119.589 593.755 120.295 593.931 121.443C594.108 122.766 593.755 123.56 592.167 123.296C590.667 123.031 590.137 123.737 590.402 125.149C590.667 126.825 590.049 127.619 588.284 127.266C586.961 127.002 586.166 127.531 586.431 129.031C586.696 130.531 585.99 130.884 584.578 130.796C583.166 130.708 581.754 130.796 580.431 130.796C579.284 130.708 578.931 131.149 578.931 132.296C578.931 134.767 578.843 134.767 576.284 134.767C569.577 134.767 562.871 134.678 556.253 134.767C554.577 134.767 553.959 134.326 554.224 132.649C554.488 131.149 553.871 130.443 552.282 130.708C550.694 130.972 549.9 130.443 550.253 128.678C550.518 127.355 549.812 126.913 548.665 127.178C547.076 127.443 546.723 126.737 546.723 125.237C546.812 117.913 546.812 110.501 546.723 103.177C546.723 101.677 546.988 100.794 548.753 101.059C549.988 101.324 550.429 100.706 550.341 99.4708C550.253 98.3237 550.429 97.0884 550.341 95.9413C550.253 94.7941 550.694 94.2647 551.841 94.4412C553.341 94.7059 553.518 93.9117 553.518 92.6764C553.518 90.9116 554.841 89.4115 554.4 87.5585C554.312 86.9408 554.93 87.029 555.371 86.9408C557.842 86.5879 557.841 86.5878 557.841 84.0289C557.224 84.8231 557.224 84.6466 557.312 84.4701C558.283 84.3819 559.342 84.3819 560.312 84.3819C560.93 84.3819 561.283 84.1171 561.195 83.4995C561.106 82.97 561.459 82.0876 560.842 81.9111C559.871 81.7347 558.724 81.6464 557.753 81.9111C556.783 82.1759 557.4 83.1465 557.224 83.8524C557.224 84.0289 557.312 84.2936 557.312 84.4701ZM705.466 99.3826C707.143 99.3826 708.731 99.3826 710.408 98.6767C711.467 98.2355 712.349 98.3237 712.084 96.9119C711.908 95.6765 712.526 95.3236 713.585 95.5001C715.261 95.7648 715.879 95.1471 715.614 93.4705C715.438 92.4117 715.879 91.9705 717.026 91.9705C719.408 91.9705 719.408 91.8822 719.585 89.4115C719.585 88.6174 719.673 88.0879 720.732 87.9997C723.114 87.8232 723.114 87.8232 723.114 85.4407C723.114 84.6466 723.114 83.8524 723.114 83.0583C723.114 82.2641 722.938 81.8229 721.967 81.9111C721.261 81.9994 720.379 81.6464 720.467 82.8818C720.555 84.6466 719.673 85.529 717.908 85.4407C716.849 85.3525 716.408 85.7055 716.496 86.7643C716.673 87.9114 716.055 88.2644 715.085 88.0879C713.055 87.735 712.702 88.7938 712.967 90.4704C713.143 91.7057 712.702 92.3234 711.379 92.0587C709.614 91.7057 709.173 92.5882 709.437 94.0882C709.614 95.2353 709.084 95.5883 707.937 95.5883C705.466 95.5883 705.466 95.6765 705.466 98.2355C705.555 98.5884 705.555 99.0296 705.466 99.3826C704.672 99.4708 703.79 99.4708 702.908 99.4708C702.29 99.4708 701.937 99.7356 702.025 100.353C702.113 100.883 701.76 101.589 702.378 101.942C703.702 102.736 705.466 101.765 705.466 100.265C705.466 100 705.466 99.6473 705.466 99.3826ZM456.013 128.06C459.984 128.06 463.954 128.06 467.925 128.06C470.219 128.06 470.308 128.061 470.219 125.678C470.219 124.443 470.572 123.913 471.808 124.001C473.131 124.09 474.455 123.913 475.779 124.09C477.279 124.178 477.985 123.825 477.72 122.237C477.543 121.09 477.896 120.384 479.22 120.56C480.279 120.737 480.455 120.031 480.367 119.237C480.279 117.913 481.073 117.119 482.22 117.119C483.897 117.207 484.073 116.413 483.897 115.089C483.632 113.501 484.25 112.707 485.926 113.06C487.691 113.413 488.132 112.53 487.867 110.942C487.779 110.236 487.779 109.53 488.926 109.442C491.397 109.265 491.397 109.177 491.397 106.795C491.397 106.001 491.485 105.206 491.397 104.412C491.309 103.265 491.662 102.736 492.897 102.912C494.485 103.177 495.103 102.736 495.015 100.971C494.838 98.6767 495.015 98.5884 497.486 98.5884C498.633 98.5884 499.074 98.2355 498.986 97.0884C498.897 95.7648 498.986 94.4412 498.986 93.1176C498.986 92.4999 499.074 91.9705 499.868 91.9705C500.75 91.8822 501.898 92.4117 502.339 91.6175C502.692 90.8233 502.515 89.7645 502.515 88.7938C502.515 88.1762 502.515 87.6467 502.515 87.029C502.515 84.5583 502.515 84.5583 504.898 84.4701C505.868 84.4701 506.574 84.3819 506.486 83.0583C506.486 81.8229 505.868 81.8229 504.986 81.8229C502.603 81.7347 502.515 81.7347 502.515 79.3522C502.515 78.0286 501.986 77.7639 500.839 77.7639C499.427 77.8521 498.015 77.6756 496.691 77.8521C495.28 77.9404 494.927 77.4109 495.015 76.0873C495.103 74.5873 495.015 73.1754 495.015 71.6753C495.015 70.3517 495.191 69.1164 493.162 69.3811C492.456 69.4694 492.279 69.0282 492.368 68.4105C492.456 67.881 492.191 66.8222 492.721 66.9104C494.221 67.0869 495.191 65.7633 496.515 65.8515C497.574 65.9398 498.633 66.028 499.603 65.8515C501.809 65.3221 503.751 66.9104 505.868 66.8222C506.486 66.8222 506.574 67.3516 506.486 67.7928C506.221 69.4694 507.192 69.5576 508.427 69.4693C509.486 69.3811 510.457 69.4693 511.516 69.4693C511.957 69.4693 512.663 69.5576 512.575 68.9399C512.31 67.2634 514.075 66.1162 513.545 64.4397C513.369 63.6455 513.722 63.1161 514.604 63.2926C516.634 63.6455 516.898 62.4102 516.545 60.9983C516.104 59.2336 517.781 57.9982 517.516 56.3216C517.428 55.8804 517.957 55.7922 518.31 55.7922C520.075 56.0569 520.251 55.0863 520.075 53.6745C519.987 52.8803 520.075 52.0861 520.075 51.292C520.075 48.8213 520.34 48.4683 522.899 48.2918C523.693 48.2036 524.31 48.0271 524.046 47.1447C523.604 45.3799 525.458 44.0563 525.016 42.2033C524.928 41.7621 525.369 41.5856 525.722 41.5856C527.663 41.9386 527.664 40.7032 527.575 39.3796C527.575 37.3501 527.575 37.3501 529.87 37.1736C530.399 37.1736 531.105 37.2619 531.105 36.3795C531.105 35.2324 530.928 33.997 531.899 32.9381C532.252 32.5852 532.34 31.2616 531.811 30.9086C530.928 30.2027 531.105 29.4085 531.193 28.5261C531.281 27.379 530.752 27.0261 529.693 27.0261C523.693 27.0261 517.604 27.0261 511.604 27.0261C510.545 27.0261 509.839 27.1143 510.016 28.4379C510.104 28.8791 510.192 29.585 509.486 29.6733C507.545 29.7615 505.957 30.9086 503.927 30.6439C501.809 30.3792 499.692 30.5557 497.574 30.5557C495.191 30.5557 495.103 30.5557 495.191 32.8499C495.191 34.2617 494.838 34.6147 493.427 34.6147C491.044 34.5264 488.75 34.6147 486.367 34.6147C485.75 34.6147 485.044 34.4382 484.955 35.4971C484.867 36.3795 485.397 37.5266 484.603 37.9678C483.808 38.3208 482.75 38.1443 481.779 38.1443C480.896 38.1443 480.014 38.2325 479.132 38.1443C478.161 38.056 477.808 38.4972 477.896 39.4679C478.249 41.3209 477.455 42.0268 475.602 41.6739C474.278 41.4091 473.661 41.9386 473.837 43.3504C473.926 43.8798 474.102 44.8505 473.22 44.674C471.455 44.321 470.131 45.7329 468.543 45.6446C467.661 45.5564 467.219 45.9094 467.219 46.88C467.308 48.4683 466.425 49.2625 464.837 49.1742C463.778 49.086 463.601 49.7037 463.69 50.4978C463.954 52.0861 463.16 52.4391 461.837 52.2626C460.69 52.0861 459.895 52.4391 460.16 53.7627C460.513 55.704 459.454 55.9687 457.866 55.7922C456.542 55.6157 455.925 56.0569 456.101 57.4688C456.278 58.7924 455.925 59.5865 454.336 59.3218C452.836 59.0571 452.307 59.763 452.572 61.1748C452.836 62.8514 452.219 63.5573 450.454 63.2926C449.307 63.1161 448.336 63.2926 448.601 64.7927C448.954 66.5574 448.071 66.9986 446.571 66.8222C445.424 66.6457 444.983 67.1751 445.071 68.3222C445.159 69.4694 445.071 70.7047 445.071 71.8518C445.071 73.3519 444.542 74.4108 442.865 74.3225C441.983 74.3225 441.542 74.499 441.542 75.5579C441.453 77.7639 441.365 77.8521 438.983 77.8521C437.924 77.8521 437.571 78.1168 437.571 79.264C437.659 80.5875 437.571 81.9111 437.571 83.2347C437.571 84.1171 437.394 84.4701 436.335 84.5583C434.482 84.6466 434.041 85.2643 434.041 87.1173C434.041 89.4998 434.041 91.794 434.041 94.1765C434.041 95.1471 433.776 95.6765 432.718 95.5883C431.835 95.5001 431.394 95.7648 431.394 96.7354C431.394 102.118 431.394 107.501 431.394 112.795C431.394 113.413 431.394 114.119 432.276 113.942C434.041 113.677 434.218 114.648 434.041 116.06C433.953 117.031 434.129 118.001 434.041 118.884C433.865 120.207 434.394 120.825 435.718 120.56C437.13 120.295 437.835 120.825 437.571 122.325C437.394 123.56 437.747 124.178 439.159 124.09C441.453 124.001 441.453 124.09 441.453 126.384C441.453 127.619 441.806 128.06 443.042 127.972C447.542 128.06 451.777 128.06 456.013 128.06ZM535.693 73.3519C537.282 73.3519 538.958 73.3519 540.546 73.3519C542.929 73.3519 542.841 73.5284 542.664 71.2341C542.576 69.5576 543.282 69.2046 544.694 69.3811C545.753 69.5576 546.459 69.2929 546.282 67.9693C546.106 66.8222 546.812 66.6457 547.782 66.7339C549.106 66.7339 549.9 66.028 549.812 64.7927C549.723 63.2926 550.429 63.1161 551.665 63.2043C552.194 63.2043 553.077 63.2926 552.9 62.4984C552.459 60.4689 554.135 58.8806 553.871 56.9393C553.694 55.8804 554.4 55.704 555.194 55.7922C556.341 55.9687 556.518 55.351 556.518 54.3804C556.43 51.9979 556.43 49.5272 556.518 47.1447C556.518 46.1741 556.341 45.6446 555.194 45.7329C554.665 45.8211 553.871 45.9976 553.871 45.027C553.871 43.5269 553.871 42.1151 552.988 40.7032C552.635 40.0855 553.341 38.9384 552.635 38.409C551.929 37.8796 550.959 38.2325 550.076 38.1443C549.282 38.1443 548.488 38.2325 547.694 38.1443C546.547 38.056 546.282 38.5855 546.37 39.5561C546.459 40.8797 546.37 42.2033 546.37 43.5269C546.37 44.0563 546.459 44.5858 545.576 44.7622C543.017 45.2917 543.017 45.2917 542.841 47.8506C542.841 48.6448 542.753 49.3507 541.694 49.1742C539.841 48.8213 539.576 49.7919 539.752 51.292C539.841 52.0861 539.664 52.8803 539.752 53.6745C539.929 55.1745 539.576 56.0569 537.811 55.7922C536.576 55.5275 536.135 56.1452 536.223 57.3805C536.311 58.8806 536.223 60.4689 536.223 61.969C536.223 62.9396 535.958 63.2043 534.987 63.2926C532.252 63.4691 532.252 63.4691 532.252 66.1162C532.252 66.8222 532.252 67.6163 532.252 68.3222C532.252 70.6165 532.252 70.6165 529.958 70.7047C528.987 70.7047 528.722 71.0577 528.634 71.9401C528.634 72.9989 528.987 73.3519 530.046 73.3519C531.899 73.3519 533.752 73.3519 535.693 73.3519ZM578.401 95.5001C578.401 93.4705 578.313 91.3528 578.401 89.3233C578.401 88.1762 578.048 87.9997 576.99 87.9997C576.019 87.9997 575.754 88.4409 575.754 89.3233C575.666 91.794 575.578 91.794 573.283 91.9705C572.754 92.0587 572.048 92.0587 572.225 92.7646C572.666 94.7941 570.813 96.2942 571.254 98.3237C571.519 99.3826 570.813 99.5591 569.93 99.4708C568.695 99.2944 567.901 99.6473 568.166 101.147C568.43 102.736 567.724 103.265 566.224 103.089C564.989 102.912 564.548 103.353 564.636 104.677C564.724 106.795 564.548 108.912 564.724 111.03C564.812 112.619 564.459 113.589 562.606 113.236C561.459 113.06 561.106 113.589 561.106 114.736C561.195 116.148 561.195 117.56 561.106 118.884C561.018 120.384 561.548 120.825 562.959 120.737C563.665 120.648 564.548 120.384 564.724 121.707C564.901 124.266 564.989 124.178 567.548 124.178C568.342 124.178 569.136 124.178 569.93 124.178C570.813 124.266 571.254 124.001 571.254 122.943C571.342 120.648 571.43 120.648 573.813 120.648C574.607 120.648 575.401 120.56 576.195 120.648C577.872 120.913 578.49 120.295 578.225 118.619C578.048 117.56 578.49 117.119 579.637 117.119C582.019 117.119 582.107 117.031 582.107 114.56C582.107 113.501 582.46 113.06 583.519 113.236C583.96 113.324 584.402 113.236 584.843 113.236C585.902 113.236 585.637 112.442 585.637 111.824C585.725 111.207 585.637 110.677 584.755 110.677C583.872 110.589 582.725 111.118 582.284 110.324C581.843 109.53 582.107 108.471 582.107 107.501C582.107 106.883 582.107 106.177 582.107 105.559C582.107 103.265 582.107 103.177 579.725 103.265C578.49 103.265 578.048 102.912 578.048 101.677C578.49 99.4708 578.401 97.4413 578.401 95.5001ZM589.961 89.941C589.961 91.441 589.961 92.8529 589.961 94.3529C589.961 95.2353 590.402 95.5001 591.196 95.4118C591.99 95.4118 592.608 95.4118 592.608 94.2647C592.52 91.3528 592.608 88.3526 592.608 85.4407C592.608 84.5583 592.167 84.2936 591.373 84.3819C590.578 84.3819 589.872 84.3819 589.961 85.529C589.961 87.0291 589.961 88.5291 589.961 89.941ZM751.792 109.883C751.792 109.177 751.704 108.383 751.792 107.677C751.881 106.618 751.351 106.442 750.469 106.442C749.586 106.442 749.145 106.706 749.145 107.677C749.233 109.001 749.233 110.324 749.145 111.648C749.057 112.619 749.322 113.06 750.469 113.06C751.616 113.06 751.881 112.53 751.792 111.56C751.792 111.118 751.792 110.501 751.792 109.883ZM607.52 97.6178C607.52 96.4707 607.785 95.4118 606.02 95.4118C604.344 95.4118 604.52 96.2942 604.52 97.3531C604.52 98.412 604.167 99.5591 606.109 99.4708C607.697 99.4708 607.609 98.5884 607.52 97.6178ZM563.842 79.1757C564.107 78.2051 563.665 77.7639 562.518 77.7639C561.283 77.7639 561.283 78.4698 561.283 79.264C561.283 80.3228 561.459 80.8523 562.695 80.8523C563.842 80.9405 563.93 80.2346 563.842 79.1757ZM685.701 98.5002C687.201 98.7649 686.848 97.6178 686.936 96.8236C687.024 95.6765 686.583 95.5001 685.524 95.5001C684.024 95.4118 684.377 96.3825 684.289 97.2648C684.201 98.3237 684.73 98.6767 685.701 98.5002ZM756.734 97.0001C756.645 97.8825 756.646 98.5002 757.881 98.5002C759.116 98.5002 759.381 97.9708 759.293 96.9119C759.204 96.0295 759.381 95.3236 758.057 95.3236C756.91 95.4118 756.557 95.9413 756.734 97.0001ZM754.351 102.03C755.234 102.118 755.851 102.118 755.851 100.883C755.851 99.6473 755.322 99.4708 754.263 99.4708C753.381 99.4708 752.763 99.4708 752.763 100.706C752.675 101.942 753.204 102.206 754.351 102.03Z" fill="black"/>
<path d="M130.144 142.62C130.32 142.62 130.585 142.62 130.761 142.62C133.585 142.62 133.673 142.62 133.585 139.885C133.585 138.473 133.938 138.12 135.35 138.208C137.732 138.296 137.556 138.561 137.644 136.002C137.644 135.208 137.644 134.414 137.644 133.62C137.556 132.384 137.556 131.325 139.321 131.678C139.938 131.767 140.291 131.59 140.291 130.884C140.556 128.061 141.703 125.325 141.174 122.413C140.997 121.178 141.35 120.472 142.85 120.648C143.821 120.825 144.35 120.56 144.262 119.413C143.556 109.442 145.497 99.5591 145.144 89.588C144.968 84.2054 145.586 78.8228 144.968 73.5284C144.439 69.1164 144.262 64.7927 144.262 60.4689C144.262 59.2336 143.38 59.4983 142.674 59.4983C141.35 59.5865 141.085 59.0571 141.085 57.8218C141.174 55.5275 141.085 53.2333 141.085 51.0273C141.085 49.2625 140.556 48.6448 138.791 48.4683C137.821 48.3801 137.556 48.0271 137.556 47.1447C137.644 45.8211 137.468 44.4976 137.556 43.174C137.644 42.1151 137.203 41.8504 136.144 41.8504C133.762 41.7621 133.673 41.7621 133.585 39.5561C133.497 38.4973 133.056 38.2325 132.261 38.409C130.673 38.5855 129.703 38.2325 130.055 36.2913C130.232 35.1441 129.703 34.6147 128.555 34.8794C126.879 35.1441 126.173 34.5265 126.526 32.8499C126.791 31.3498 126.261 30.5557 124.673 30.9086C123.085 31.2616 122.026 29.6733 120.437 29.938C119.82 30.0262 119.908 29.1438 119.996 28.7026C120.084 27.5555 119.555 27.2908 118.584 27.3791C118.143 27.3791 117.702 27.3791 117.261 27.3791C114.878 27.3791 115.055 27.4673 115.143 25.1731C115.231 23.673 114.702 23.2318 113.29 23.32C110.996 23.4083 108.701 23.32 106.495 23.4083C105.348 23.4083 104.819 23.1435 104.995 21.9082C105.348 20.0552 104.378 19.7904 102.789 19.7904C95.995 19.8787 89.1123 19.8787 82.3178 19.7904C80.8177 19.7904 80.1118 20.1434 80.3765 21.7317C80.6413 23.1435 79.9353 23.4083 78.6118 23.4083C75.8763 23.32 73.1409 23.4083 70.4937 23.32C69.2583 23.32 68.7289 23.7612 68.9054 24.9083C69.1701 26.5849 68.8171 27.6438 66.7876 27.2908C65.5523 27.0261 65.1993 27.8203 65.3758 28.7909C65.6405 30.5557 64.8464 30.9086 63.258 30.8204C61.9345 30.7322 60.6109 30.8204 59.2873 30.7322C58.1401 30.6439 57.699 31.0851 57.7872 32.2322C57.9637 33.6441 57.9637 35.0559 55.7577 34.7912C55.14 34.7029 55.2282 35.2324 55.14 35.6736C54.787 37.9678 54.5223 38.2325 52.3163 38.2325C50.9927 38.2325 50.0221 38.2325 50.2868 39.9973C50.3751 40.8797 49.7574 40.8797 49.1397 40.8797C47.5514 40.8797 46.7572 41.6739 46.8455 43.174C46.9337 44.3211 46.669 45.027 45.3454 44.8505C44.0218 44.674 44.11 45.6447 44.1983 46.4388C44.3748 47.9389 43.8453 48.6448 42.257 48.3801C40.6687 48.1154 39.8745 48.6448 40.1393 50.3214C40.404 51.7332 39.9628 52.6156 38.2862 52.3509C36.9626 52.0862 36.3449 52.7038 36.6097 54.0274C36.8744 55.4393 36.3449 56.1452 34.8449 55.8805C33.3448 55.6158 32.9918 56.4099 33.0801 57.7335C33.1683 59.0571 32.9918 60.3807 33.1683 61.7043C33.2566 63.1161 32.7271 63.5573 31.4035 63.3808C29.9034 63.2044 28.7563 63.4691 29.1093 65.4104C29.374 66.734 28.5799 67.0869 27.4327 66.9104C25.8444 66.6457 25.4032 67.4399 25.5797 68.8517C25.6679 70.0871 25.5797 71.3224 25.5797 72.5578C25.6679 73.7931 25.4915 74.5873 23.9914 74.3226C22.8443 74.1461 22.2266 74.6755 22.5796 75.7344C23.0208 77.2345 21.4324 78.1169 21.6089 79.5287C21.7854 80.8523 21.6089 82.1759 21.6089 83.4995C21.6089 84.3819 21.0795 84.4701 20.4618 84.3819C19.05 84.2054 18.9617 84.9996 18.9617 86.0584C19.05 89.7645 18.9617 93.5588 18.9617 97.2649C18.9617 99.0297 17.5499 100.53 17.9911 102.383C18.0793 102.736 17.4617 102.824 17.1087 102.824C12.785 102.824 8.46121 102.824 4.13746 102.824C2.81387 102.824 3.07859 101.853 3.07859 101.147C3.07859 100.089 3.16683 99.0297 1.57851 99.2944C0.519636 99.6474 0.431396 98.8532 0.431396 98.059C0.431396 95.2354 0.431396 92.3235 0.431396 89.4998C0.431396 88.4409 0.607876 87.8232 1.84323 87.9997C3.07859 88.088 3.07859 87.382 3.07859 86.4114C3.07859 83.0583 3.07859 79.617 3.07859 76.2638C3.07859 73.8814 3.43155 73.4402 5.72578 73.3519C6.87289 73.3519 7.04937 72.9107 7.04937 71.9401C6.96113 70.44 7.13761 68.8517 7.04937 67.3516C6.96113 66.2045 7.49057 65.6751 8.54945 65.9398C10.226 66.2045 10.8437 65.5868 10.579 63.9103C10.4907 62.9397 10.4907 61.8808 10.579 60.8219C10.579 59.2336 11.2849 58.4394 12.8732 58.4394C14.285 58.5277 14.7262 57.9982 14.5497 56.6746C14.4615 56.0569 14.5497 55.5275 14.5497 54.9098C14.5497 52.5274 14.5497 52.4391 17.0205 52.2626C17.7264 52.1744 18.1676 51.9979 18.0793 51.2038C18.0793 50.6743 18.1676 50.1449 18.0793 49.7037C17.9029 48.2036 18.7852 48.1154 19.8441 48.2919C21.3442 48.4683 21.7854 47.8507 21.6089 46.4388C21.5207 45.1152 21.6972 43.7916 21.5207 42.468C21.4324 41.1444 21.8736 40.5268 23.1972 40.7915C24.962 41.1444 25.8444 40.4385 25.4915 38.5855C25.315 37.4384 25.9327 37.0854 26.9033 37.2619C28.6681 37.5266 29.2858 36.8207 29.0211 35.0559C28.8446 33.997 29.2858 33.5558 30.3447 33.6441C31.227 33.7323 31.6682 33.4676 31.6682 32.4087C31.7565 30.6439 32.5506 29.7615 34.2272 29.6733C35.2861 29.585 35.639 29.3203 35.639 28.2614C35.5508 26.8496 36.4332 26.1437 37.6685 26.1437C38.8157 26.1437 39.2569 25.7025 39.0804 24.6436C38.8157 23.1435 39.6981 22.8788 40.8452 23.0553C42.5217 23.32 43.4041 22.7906 43.0512 20.9376C42.7864 19.5257 43.7571 19.5257 44.816 19.4375C46.7572 19.4375 47.2867 18.9963 47.4631 17.055C47.5514 16.1726 47.9043 15.9079 48.6985 15.9961C50.0221 15.9961 51.3457 15.9079 52.6693 15.9961C53.8164 16.0844 54.1694 15.6432 54.1694 14.4961C54.1694 12.0253 54.2576 12.0253 56.8166 12.0253C57.5225 12.0253 58.3166 12.0253 59.0225 12.0253C61.405 12.0253 61.4933 12.0253 61.5815 9.73112C61.5815 8.76048 62.0227 8.49576 62.9051 8.49576C64.3169 8.584 65.7288 8.40752 67.0524 8.49576C68.2877 8.584 68.6407 8.05456 68.6407 6.90745C68.8172 4.52497 68.9054 4.52497 71.1996 4.52497C74.4645 4.52497 77.8176 4.52497 81.0825 4.52497C82.2296 4.52497 83.2002 4.52498 82.9355 2.93666C82.8473 2.23074 83.112 1.96602 83.9061 1.78954C89.024 0.465949 94.2302 1.08363 99.4363 0.907148C100.936 0.818908 101.907 1.08363 101.554 2.93666C101.289 4.17202 101.907 4.52497 103.142 4.52497C107.025 4.43674 110.907 4.52497 114.79 4.43674C116.114 4.43674 116.555 4.78969 116.555 6.11329C116.467 8.40752 116.555 8.40752 118.937 8.40752C119.555 8.40752 120.084 8.40752 120.702 8.40752C123.261 8.40752 123.261 8.40752 123.526 10.9665C123.614 11.7606 123.879 12.0253 124.585 12.0253C125.996 12.0253 127.408 12.0253 128.732 12.0253C130.232 12.0253 131.114 12.7313 130.938 14.2313C130.761 15.8197 131.467 16.1726 132.791 15.9961C134.026 15.8197 135.262 15.8197 134.909 17.6727C134.82 18.0256 134.909 18.5551 135.35 18.5551C136.938 18.2904 137.997 19.8787 139.585 19.5257C140.732 19.261 141.262 19.8787 140.997 21.0258C140.732 22.6141 141.35 23.4083 143.027 23.0553C144.792 22.7024 145.233 23.5847 144.968 25.1731C144.88 25.879 144.968 26.6731 144.968 27.3791C144.968 29.585 144.968 29.6733 147.174 29.6733C148.233 29.6733 148.498 30.0262 148.586 31.0851C148.674 33.4676 148.674 33.5558 150.88 33.6441C151.939 33.6441 152.115 34.0853 152.115 34.9677C152.115 36.3795 152.204 37.7913 152.115 39.1149C152.027 40.4385 152.557 40.7032 153.792 40.7032C156.174 40.7032 156.174 40.7915 156.174 42.9975C156.174 43.7916 156.174 44.5858 156.174 45.3799C156.174 47.7624 156.174 47.8507 158.645 48.0271C159.792 48.1154 159.704 48.7331 159.704 49.5272C159.704 52.1744 159.704 54.8216 159.704 57.4688C159.704 58.6159 159.88 59.3218 161.204 59.1453C162.439 58.9689 162.616 59.5865 162.881 60.7337C164.645 68.6752 163.41 76.705 163.675 84.6466C163.94 92.7647 163.94 100.794 163.587 108.913C163.498 111.295 162.881 113.766 162.792 116.236C162.792 117.295 161.822 117.031 161.292 116.942C159.969 116.854 159.616 117.384 159.704 118.619C159.792 120.119 159.528 121.707 159.792 123.207C160.233 125.855 158.822 128.237 158.822 130.796C158.822 131.678 158.027 131.59 157.498 131.502C156.351 131.414 156.086 131.943 156.174 132.914C156.263 133.973 155.998 135.12 156.263 136.179C156.616 138.032 155.204 139.355 155.204 141.12C155.204 141.914 154.233 141.649 153.792 141.649C152.468 141.561 152.027 142.091 152.292 143.326C152.733 145.267 151.321 146.856 151.321 148.709C151.321 149.415 150.527 149.238 150.086 149.238C149.027 149.15 148.674 149.679 148.762 150.65C148.762 150.915 148.762 151.268 148.762 151.532C148.762 153.915 148.762 154.003 146.38 154.091C145.321 154.179 145.056 154.621 145.233 155.415C145.586 157.356 144.703 157.886 142.938 157.621C141.527 157.356 141.085 157.974 141.262 159.297C141.527 160.709 140.909 161.327 139.497 161.15C137.909 160.886 137.644 161.68 137.732 163.003C137.909 164.239 137.821 165.386 135.968 165.121C135.173 165.033 134.997 165.562 135.085 166.268C135.262 167.592 134.556 167.945 133.409 167.768C133.056 167.768 132.703 167.768 132.35 167.768C130.85 167.504 129.967 167.945 130.232 169.71C130.497 170.945 129.879 171.386 128.644 171.298C127.497 171.21 126.261 171.386 125.114 171.298C123.967 171.21 123.614 171.651 123.614 172.798C123.614 175.269 123.526 175.269 120.967 175.269C119.467 175.269 118.055 175.269 116.555 175.269C115.672 175.269 115.055 175.445 115.231 176.504C115.408 177.651 114.79 177.739 113.731 178.004C108.172 179.769 102.525 178.445 96.8774 178.798C95.4655 178.887 94.7596 179.063 94.8479 180.651C94.9361 182.151 94.0537 182.769 92.2889 182.769C84.965 182.769 77.5529 182.769 70.229 182.769C67.4936 182.769 64.7581 182.504 62.1109 182.857C59.552 183.122 57.4342 181.799 54.9635 181.887C54.0811 181.887 54.1694 181.093 54.2576 180.563C54.5223 178.975 53.7282 178.71 52.3163 178.798C50.1986 178.887 48.0808 178.798 45.9631 178.798C43.9336 178.798 43.4041 178.357 43.2276 176.416C43.1394 175.357 42.6982 175.269 41.8158 175.269C40.5805 175.269 39.3451 175.181 38.1097 175.269C37.0509 175.357 36.4332 175.004 36.6097 173.857C36.6979 173.504 36.6097 173.151 36.6097 172.798C36.7861 171.563 36.1685 171.21 35.1096 171.386C33.433 171.651 32.8154 170.945 33.0801 169.357C33.3448 167.945 32.5506 167.857 31.4035 167.857C29.1093 167.857 29.1093 167.857 29.1093 165.474C29.1093 164.504 29.1093 163.533 29.1093 162.65C29.1093 161.239 28.4916 160.445 27.0798 160.445C25.6679 160.533 25.4915 159.915 25.5797 158.768C25.6679 156.297 25.5797 153.738 25.6679 151.268C25.7562 149.944 25.4915 149.238 23.9032 149.326C21.5207 149.503 21.6972 149.591 21.6972 147.12C21.6972 140.238 21.6972 133.267 21.6972 126.384C21.6972 124.09 21.4324 124.09 23.8149 124.266C25.4032 124.354 25.7562 123.737 25.7562 122.237C25.6679 118.972 25.7562 115.619 25.6679 112.354C25.6679 111.207 25.7562 110.413 27.2563 110.501C28.5799 110.589 29.1975 109.618 29.1975 108.295C29.1975 106.971 28.7563 105.295 31.1388 105.736C31.8447 105.824 31.8447 105.206 31.8447 104.677C31.7565 102.912 33.0801 102.471 34.4037 102.295C35.2861 102.206 35.9037 102.118 35.8155 100.971C35.7273 99.4709 36.5214 98.6767 38.0215 98.765C39.1686 98.8532 39.3451 98.3238 39.3451 97.3531C39.4333 95.4118 39.9628 94.7942 41.904 94.7942C43.1394 94.7942 43.2276 94.2647 43.3159 93.2059C43.4041 91.8823 42.7864 90.4704 44.0218 89.0586C44.5512 88.4409 44.9042 87.9997 45.6101 88.088C46.5807 88.1762 46.9337 87.735 46.8455 86.8526C46.5807 84.9996 48.1691 83.5877 47.8161 81.7347C47.6396 80.8523 48.6103 81.117 49.1397 81.117C50.1103 81.2053 50.3751 80.7641 50.3751 79.7934C50.2868 78.2934 50.4633 76.705 50.3751 75.205C50.2868 73.9696 50.728 73.5284 51.9634 73.6167C54.3458 73.6167 54.3458 73.5284 54.3458 71.1459C54.3458 69.1164 54.3458 66.9987 54.3458 64.9692C54.3458 63.9985 54.5223 63.5573 55.6694 63.4691C57.8754 63.3809 57.8754 63.3809 57.8754 60.9984C57.8754 60.6454 57.8754 60.2925 57.8754 59.9395C57.7872 58.9689 58.1401 58.6159 59.1108 58.7041C59.552 58.7041 59.9932 58.7041 60.4344 58.7041C61.4933 58.7924 61.9345 58.4394 61.8462 57.3806C61.758 56.3217 61.9345 55.351 61.8462 54.2922C61.758 53.0568 62.0227 52.2626 63.5228 52.5274C65.1111 52.7921 65.6405 52.0862 65.3758 50.5861C65.1993 49.2625 65.464 48.2919 67.1406 48.4683C68.376 48.5566 68.023 47.4977 67.9348 46.88C67.7583 45.2917 68.4642 44.7623 69.876 45.027C71.5526 45.2917 72.1703 44.674 71.9055 42.9975C71.6408 41.4974 72.2585 40.7915 73.7586 41.0562C75.1704 41.3209 75.6116 40.5268 75.4351 39.2914C75.1704 37.7913 75.8763 37.3501 77.2882 37.5266C78.7 37.7031 79.6706 37.5266 79.4941 35.5853C79.4059 34.7912 80.2883 33.9088 81.3472 33.997C82.4061 33.997 83.5532 33.9088 84.6121 33.997C86.1121 34.1735 86.6416 33.5558 86.3768 32.144C86.2004 31.1734 86.7298 30.9969 87.6122 30.8204C93.789 29.4086 100.054 30.291 106.231 29.938C108.26 29.8498 109.849 31.2616 111.79 30.9969C112.761 30.8204 112.408 31.9675 112.408 32.5852C112.319 33.8205 112.849 34.0853 113.908 34.0853C115.143 33.997 116.378 34.0853 117.614 34.0853C119.026 34.0853 119.908 34.6147 119.82 36.1148C119.82 37.1737 119.996 37.7031 121.232 37.7031C122.555 37.6149 123.349 38.4973 123.349 39.8209C123.261 41.0562 123.879 41.3209 124.938 41.2327C126.261 41.0562 126.702 41.6739 126.438 42.821C126.085 44.7623 127.849 46.2623 127.408 48.2036C127.32 48.9095 128.202 48.6448 128.644 48.7331C129.35 48.7331 130.144 48.7331 129.967 49.7037C129.35 53.851 131.291 57.8218 130.85 61.8808C130.673 63.2044 131.203 64.7044 130.761 65.8516C129.703 68.4987 130.055 71.2342 129.967 73.8814C129.967 74.6755 129.526 74.852 128.82 74.7638C127.497 74.5873 127.232 75.2932 127.32 76.4403C127.408 77.8522 127.144 79.264 127.408 80.5876C127.849 83.1465 126.349 85.2643 126.438 87.735C126.438 88.6174 125.644 88.5292 125.114 88.4409C123.526 88.1762 123.261 89.0586 123.349 90.3822C123.438 90.9999 123.261 91.6176 123.349 92.147C123.967 94.6177 122.114 96.8237 122.379 99.2944C122.467 100 121.761 100 121.32 100C119.996 99.8238 119.731 100.53 119.82 101.677C119.908 103.971 119.908 106.265 119.82 108.471C119.82 109.707 120.173 110.324 121.408 110.06C123.173 109.707 123.526 110.589 123.438 112.177C123.349 113.148 123.438 114.119 123.438 115.001C123.349 116.589 123.261 118.001 125.644 117.56C126.438 117.384 126.438 118.089 126.614 118.707C128.114 124.707 127.232 130.796 127.497 136.885C127.497 137.943 127.408 139.002 128.997 138.738C129.879 138.561 130.144 139.002 130.144 139.885C130.144 140.502 130.232 141.561 130.144 142.62C127.673 142.708 127.497 142.708 127.585 145.179C127.673 146.856 126.702 146.767 125.644 146.679C124.32 146.591 123.438 146.591 123.526 148.444C123.614 149.591 122.643 150.209 121.32 150.209C120.084 150.209 119.114 149.503 119.202 148.356C119.29 146.503 118.231 146.503 116.996 146.679C115.584 146.856 114.878 146.414 115.143 144.914C115.408 143.326 114.966 142.355 113.113 142.708C111.966 142.885 111.613 142.355 111.613 141.208C111.702 138.649 111.613 136.09 111.613 133.531C111.613 132.384 111.613 131.414 110.025 131.678C109.496 131.767 108.878 131.678 108.966 130.972C109.231 128.678 107.466 126.649 107.996 124.266C108.172 123.649 107.996 122.943 107.996 122.325C108.084 121.09 107.731 120.56 106.407 120.648C105.878 120.737 104.907 121.001 104.907 119.942C104.731 116.942 104.554 114.03 104.113 111.03C103.495 106.354 103.937 101.5 103.937 96.7355C103.937 95.9413 103.937 95.1471 104.554 94.353C105.525 93.2059 104.731 92.0587 103.142 92.0587C100.76 92.0587 98.4657 92.0587 96.0832 92.0587C93.8772 92.0587 93.8772 92.0587 93.789 94.2647C93.789 94.7942 93.9655 95.4119 93.0831 95.5883C91.1418 96.0295 90.2594 95.5001 90.2594 93.4706C90.2594 92.3235 89.8182 91.9705 88.7593 91.9705C86.2004 92.0587 83.6414 91.9705 81.0825 91.9705C79.9353 91.9705 79.053 91.8823 79.2294 90.3822C79.3177 89.6763 79.0529 89.4116 78.2588 89.3233C75.8763 89.0586 75.2587 88.4409 75.2587 86.0584C75.2587 84.8231 74.8175 84.2937 73.6703 84.4701C72.9644 84.5584 72.6115 84.2054 72.6115 83.4995C72.6115 81.6465 72.6115 79.7934 72.6115 78.0286C72.6115 77.4992 72.6997 76.9698 73.4056 77.058C75.0822 77.3227 75.4351 76.4403 75.2587 75.0285C75.0822 73.7049 75.6998 73.4402 76.9352 73.5284C78.5235 73.6167 80.2001 73.5284 81.7884 73.5284C82.759 73.5284 82.8473 72.999 82.759 72.2048C82.759 71.4989 82.8473 70.9695 81.7884 70.8812C79.9353 70.7047 79.2294 69.7341 79.2294 67.8811C79.2294 66.8222 79.2294 65.6751 79.2294 64.6162C79.2294 63.822 78.9647 63.4691 78.0823 63.4691C76.5822 63.2926 75.9646 63.822 76.141 65.4104C76.2293 66.028 76.494 66.9104 75.2587 67.0869C74.3763 67.1752 73.2291 66.6457 72.7879 67.4399C72.3467 68.234 72.6115 69.2929 72.6115 70.2635C72.6115 70.8812 72.6115 71.5871 72.6115 72.2048C72.6115 74.499 72.6115 74.5873 70.229 74.4991C68.9936 74.4991 68.5524 74.852 68.6407 76.0874C68.7289 78.2051 68.5524 80.3229 68.7289 82.4406C68.8172 84.1172 68.4642 84.9996 66.6112 84.6466C65.3758 84.4701 65.1111 85.0878 65.1993 86.1467C65.2876 87.4703 65.1111 88.7939 65.2876 90.1175C65.464 91.794 64.8464 92.4117 63.258 92.147C62.1109 91.9705 61.6697 92.4117 61.758 93.5588C61.8462 95.0589 61.758 96.4707 61.758 97.9708C61.8462 99.1179 61.4933 99.8238 60.1697 99.6474C59.199 99.4709 58.4931 99.7356 58.5813 101.059C58.6696 102.383 57.7872 103.265 56.5518 103.177C55.0518 103.089 54.9635 103.883 55.14 104.942C55.3165 106.354 54.787 106.971 53.287 106.707C51.6987 106.442 51.3457 107.324 51.6104 108.56C51.8751 110.148 51.4339 110.942 49.6691 110.677C47.9926 110.324 47.4631 111.119 47.6396 112.707C47.7279 113.413 47.8161 114.119 46.669 114.207C44.1983 114.383 44.1983 114.472 44.1983 117.031C44.1983 117.648 44.1983 118.178 44.1983 118.795C44.1983 121.001 43.7571 121.531 41.4628 121.619C40.4922 121.707 40.2275 121.972 40.2275 122.854C40.2275 131.502 40.2275 140.238 40.2275 148.885C40.2275 149.944 40.4922 150.385 41.6393 150.297C42.1688 150.297 43.3159 150.12 43.2276 150.562C42.9629 152.15 44.5512 153.209 44.2865 154.797C43.9336 156.385 44.6395 157.091 46.316 156.827C47.1984 156.65 47.8161 156.827 47.9043 158.062C47.9926 160.356 48.0808 160.356 50.4633 160.356C51.1692 160.356 51.9634 160.445 52.6693 160.356C54.1694 160.18 54.6106 160.709 54.5223 162.209C54.4341 164.415 54.1694 164.327 56.6401 164.327C70.9349 164.327 85.1415 164.327 99.4363 164.327C101.995 164.327 101.819 164.504 101.642 162.121C101.554 160.533 102.172 160.268 103.584 160.356C106.143 160.445 108.701 160.356 111.26 160.356C112.055 160.356 112.672 160.445 112.761 159.297C112.937 156.827 113.025 156.827 115.408 156.827C116.202 156.827 116.996 156.738 117.79 156.827C118.937 156.915 119.29 156.562 119.29 155.415C119.378 153.65 120.349 152.856 122.114 152.856C123.085 152.856 124.055 152.768 124.938 152.856C126.173 152.944 126.967 152.679 126.702 151.179C126.438 149.591 127.055 149.062 128.644 149.238C129.879 149.415 130.32 148.973 130.232 147.65C130.055 146.061 130.144 144.297 130.144 142.62ZM109.054 74.3226C108.084 74.3226 107.113 74.3226 106.231 74.3226C104.731 74.2343 105.172 75.3814 105.172 76.1756C105.172 76.8815 104.819 77.7639 106.231 77.8522C108.349 77.9404 108.966 77.2345 109.054 74.3226C111.79 74.2343 111.79 74.2343 111.702 72.0283C111.702 71.0577 111.349 70.793 110.466 70.793C109.407 70.793 108.966 71.1459 109.054 72.2048C109.054 72.8225 109.054 73.6167 109.054 74.3226ZM98.9951 48.2919C96.7009 47.4977 94.0537 49.1743 91.3183 49.1743C90.7888 49.1743 90.6124 49.439 90.5241 49.9684C90.2594 51.645 90.6124 52.0862 92.2889 52.2626C92.9066 52.2626 93.9655 51.9097 93.8772 52.7921C93.7007 54.4686 94.8479 55.704 94.8479 57.2923C94.8479 58.6159 95.642 58.4394 96.4362 58.4394C97.3186 58.4394 98.1127 58.4394 97.9362 57.2041C97.848 56.2334 98.0245 55.704 99.2598 55.7922C100.76 55.8805 101.642 55.0863 101.466 53.5862C101.378 51.9979 102.436 52.3509 103.319 52.2626C104.378 52.1744 105.26 52.2626 105.084 53.6745C104.995 54.1157 104.995 54.9098 105.437 54.8216C107.29 54.4686 108.613 56.057 110.378 55.8805C111.525 55.7922 111.79 55.351 111.613 54.3804C111.525 53.5862 112.231 52.2626 110.555 52.3509C109.231 52.4391 108.878 51.9097 108.966 50.6743C108.966 50.1449 109.231 49.1743 108.437 49.2625C106.319 49.6155 104.642 48.1154 102.613 48.2919C101.554 48.3801 100.583 48.2919 98.9951 48.2919ZM92.7301 76.8815C93.9655 76.8815 95.2008 76.7933 96.4362 76.8815C97.7598 76.9698 98.0245 76.3521 97.9362 75.205C97.848 73.9696 97.0538 74.3226 96.3479 74.2343C94.0537 74.1461 94.0537 74.1461 93.9655 71.9401C93.9655 71.4989 94.0537 70.8812 93.6125 70.793C92.7301 70.6165 91.8477 70.6165 90.9653 70.793C90.0829 70.9695 90.4359 71.9401 90.5241 72.4695C90.6124 73.7049 90.3476 74.4108 88.8476 74.2343C87.9652 74.0579 87.3475 74.3226 87.3475 75.4697C87.3475 76.7933 87.9652 76.8815 88.9358 76.7933C90.2594 76.8815 91.4947 76.8815 92.7301 76.8815ZM83.9061 54.2922C83.7297 55.1746 83.9944 55.8805 85.318 55.704C86.4651 55.6158 87.2592 54.9098 87.2592 53.9392C87.2592 52.7921 86.3768 52.2626 85.1415 52.1744C83.5532 52.0862 83.9061 53.145 83.9061 54.2922Z" fill="black"/>
<path d="M350.743 126.119C350.743 120.031 350.831 113.942 350.743 107.854C350.743 106.265 351.008 105.295 352.861 105.648C354.008 105.824 354.361 105.295 354.361 104.148C354.272 100.706 354.449 97.2649 354.272 93.8236C354.272 92.4117 354.625 91.8823 356.126 91.9706C358.42 92.0588 358.243 92.2353 358.243 89.8528C358.243 87.4703 358.332 84.9996 358.243 82.6171C358.243 81.47 358.508 80.7641 359.832 80.9406C361.508 81.2053 362.038 80.4994 361.861 78.9111C361.773 77.8522 361.861 76.8816 361.861 75.8227C361.773 74.4109 361.685 73.0873 363.802 73.4402C364.508 73.5285 364.508 72.9108 364.508 72.3813C364.597 71.2342 364.332 69.9989 365.302 68.94C365.655 68.587 365.655 67.5282 365.126 67.087C364.332 66.5575 363.273 66.734 362.302 66.9105C361.596 66.9987 361.861 67.7046 361.861 68.2341C361.861 68.6753 361.773 69.1165 361.861 69.5577C361.949 70.5283 361.508 70.8813 360.626 70.793C359.655 70.7048 359.302 71.0577 359.214 72.1166C359.037 73.5285 358.155 74.8521 358.332 76.3521C358.42 76.9698 357.802 76.8816 357.361 76.9698C354.537 77.3228 354.449 77.3228 354.449 80.2347C354.449 81.2053 354.361 81.9995 353.037 81.823C352.155 81.6465 351.714 81.9995 351.714 83.0583C351.802 84.6467 350.919 85.3526 349.331 85.3526C348.802 85.3526 348.272 85.2643 348.184 86.0585C348.096 88.1762 347.125 89.3234 344.919 89.3234C344.125 89.3234 344.213 89.941 344.213 90.3822C344.213 91.4411 344.125 92.5882 344.213 93.6471C344.301 94.8825 344.037 95.6766 342.537 95.4119C340.948 95.1472 340.419 95.8531 340.684 97.3532C340.948 98.9415 340.331 99.7356 338.654 99.3827C337.154 99.118 336.448 99.6474 336.713 101.236C336.978 102.648 335.477 103.618 335.742 105.03C335.83 105.648 334.948 105.559 334.507 105.471C333.36 105.383 333.095 105.912 333.183 106.883C333.183 107.324 333.183 107.765 333.183 108.207C333.36 109.707 333.007 110.677 331.242 110.324C330.007 110.06 329.477 110.677 329.654 111.913C330.007 113.766 329.036 114.119 327.536 113.854C325.948 113.589 325.506 114.383 325.683 115.795C325.771 116.589 325.683 117.384 325.683 118.178C325.683 119.501 325.859 120.648 323.83 120.472C322.771 120.384 321.977 121.443 322.153 122.678C322.33 124.178 321.977 125.149 320.212 124.796C319.771 124.707 318.977 124.707 319.153 125.502C319.506 127.266 317.741 128.59 318.182 130.443C318.447 131.414 317.653 131.502 316.947 131.414C315.094 131.149 314.388 131.855 314.653 133.708C314.918 135.032 314.388 135.561 312.976 135.473C310.682 135.384 308.388 135.473 306.182 135.473C304.77 135.473 303.623 134.502 303.623 133.09C303.535 127.09 303.623 121.001 303.623 115.001C303.623 113.678 304.329 112.883 305.564 112.972C307.152 113.06 307.152 112.266 307.152 111.119C307.152 106.53 307.241 101.853 307.064 97.2649C307.064 95.7649 307.417 95.0589 309.006 95.3237C310.594 95.5884 311.212 95.0589 311.123 93.2941C310.947 90.9999 311.035 88.7057 311.123 86.4997C311.123 85.3526 310.594 85.1761 309.623 85.1761C308.653 85.1761 307.858 85.1761 308.035 86.4997C308.123 87.735 308.035 88.9704 308.035 90.2058C308.123 91.2646 307.77 91.9706 306.623 91.7058C304.858 91.3529 304.505 92.2353 304.417 93.9118C304.329 95.5001 303.358 96.912 303.535 98.5885C303.623 99.4709 302.652 99.2062 302.211 99.2062C301.064 99.118 300.358 99.3827 300.535 100.706C300.799 102.383 300.182 103.001 298.505 102.736C297.358 102.559 296.828 103.001 297.005 104.148C297.093 104.765 297.005 105.471 297.005 106.089C297.005 107.06 297.181 108.118 296.828 108.913C296.387 109.707 295.24 109.177 294.358 109.266C293.74 109.354 293.475 109.618 293.475 110.236C293.475 110.677 293.475 111.119 293.475 111.56C293.475 113.942 293.564 113.766 291.358 113.678C289.946 113.589 289.328 114.03 289.505 115.531C289.769 117.119 289.24 118.09 287.387 117.737C286.24 117.56 285.799 118.09 285.975 119.237C286.151 120.56 285.887 121.531 284.21 121.266C283.504 121.178 283.328 121.619 283.328 122.237C283.416 124.09 282.181 124.619 280.681 124.796C280.151 124.884 279.269 124.619 279.357 125.502C279.71 127.266 277.945 128.59 278.386 130.443C278.563 131.237 278.033 131.414 277.327 131.414C275.916 131.414 274.504 131.502 273.18 131.414C272.121 131.325 271.857 131.767 271.768 132.826C271.68 135.208 271.68 135.296 269.474 135.384C268.415 135.384 268.151 135.826 268.327 136.708C268.504 138.296 268.151 139.267 266.298 138.914C265.15 138.738 264.621 139.267 264.797 140.414C265.15 142.267 264.18 142.62 262.591 142.532C261.444 142.444 260.209 142.62 259.062 142.532C257.827 142.444 257.209 142.708 257.297 144.208C257.385 146.503 257.297 146.503 254.915 146.503C254.12 146.503 253.326 146.503 252.532 146.503C250.15 146.503 250.061 146.503 249.885 148.973C249.797 150.12 249.179 150.032 248.385 150.032C245.649 150.032 242.914 150.032 240.267 150.032C239.296 150.032 238.679 150.209 238.855 151.356C239.031 152.415 238.502 152.679 237.443 152.768C236.384 152.768 235.061 152.15 234.619 153.827C234.531 154.003 233.825 154.003 233.384 154.003C229.766 154.003 226.148 154.003 222.619 154.003C222.001 154.003 221.472 154.091 221.119 153.209C220.766 152.238 219.53 152.768 218.736 152.768C217.677 152.768 217.06 152.503 217.236 151.268C217.413 150.297 216.883 149.944 216.001 150.032C215.119 150.12 214.236 149.944 213.354 150.032C211.059 150.385 209.118 148.709 206.912 149.062C206.206 149.15 206.206 148.356 206.295 147.915C206.383 146.679 205.853 146.326 204.794 146.503C203.118 146.767 202.5 146.15 202.765 144.473C203.03 142.973 202.5 142.267 200.912 142.532C199.412 142.797 198.529 142.355 198.794 140.591C199.059 139.355 198.441 138.826 197.206 139.002C195.706 139.267 195 138.649 195.265 137.061C195.441 135.914 195 135.208 193.765 135.384C192.882 135.473 192.794 135.032 192.617 134.237C190.941 125.237 192.176 116.06 191.735 107.06C191.647 105.648 192.97 104.677 192.706 103.265C192.617 102.559 193.5 102.736 193.941 102.824C195.088 102.912 195.265 102.383 195.265 101.412C195.353 99.0297 195.529 98.765 197.824 98.412C198.882 98.3238 198.882 97.7061 198.794 97.0885C198.618 95.5884 199.324 95.1472 200.647 95.3237C202.147 95.5001 203.118 95.2354 202.765 93.3824C202.5 92.147 203.03 91.5294 204.353 91.7941C206.118 92.147 206.559 91.2646 206.295 89.6763C206.03 88.088 206.736 87.5586 208.236 87.735C209.206 87.8233 210.177 87.735 211.059 87.735C213.442 87.735 213.53 87.735 213.707 85.2643C213.795 84.1172 214.413 84.2055 215.207 84.2055C217.854 84.2055 220.501 84.1172 223.148 84.2055C224.295 84.2055 225.001 83.9407 224.737 82.6171C224.384 80.8523 225.178 80.5876 226.766 80.5876C233.825 80.6759 240.884 80.6759 247.944 80.5876C249.444 80.5876 250.15 80.9406 249.885 82.5289C249.62 83.9407 250.326 84.2055 251.65 84.2055C254.209 84.1172 256.768 84.2055 259.327 84.1172C260.562 84.1172 261.091 84.5584 260.915 85.7938C260.65 87.2938 261.268 87.9115 262.856 87.735C263.65 87.6468 264.445 87.735 265.239 87.735C268.062 87.735 268.151 87.735 268.327 90.647C268.415 91.9706 269.209 91.7941 270.004 91.7058C271.592 91.5294 272.121 92.147 271.945 93.6471C271.857 94.4413 271.945 95.2354 271.945 96.0296C271.945 97.0002 272.121 98.0591 271.768 98.8532C271.327 99.6474 270.18 99.118 269.298 99.2062C268.062 99.2944 268.415 100.177 268.415 100.795C268.592 102.383 267.974 102.912 266.474 102.736C265.68 102.648 264.886 102.736 264.092 102.736C263.121 102.736 262.062 102.912 261.268 102.559C260.474 102.118 260.915 100.971 260.915 100.089C260.827 99.2062 260.385 99.2062 259.768 99.2062C258.179 99.2062 256.503 99.118 254.915 99.2062C253.767 99.2944 253.415 98.8532 253.415 97.7061C253.415 95.2354 253.326 95.2354 250.767 95.2354C241.59 95.2354 232.413 95.2354 223.237 95.2354C221.736 95.2354 221.207 95.5884 221.295 97.1767C221.472 99.4709 221.384 99.2062 219.089 99.2062C218.913 99.2062 218.825 99.2062 218.648 99.2062C217.148 99.2944 215.207 98.5885 214.148 99.4709C213.089 100.442 213.795 102.383 213.795 103.883C213.795 105.03 213.442 105.383 212.295 105.383C210.971 105.383 210.265 106.177 210.265 107.501C210.265 108.648 210.177 109.883 210.265 111.03C210.354 112.266 210.089 113.06 208.677 112.795C207.53 112.619 207.177 113.148 207.177 114.295C207.265 116.942 207.265 119.59 207.177 122.237C207.177 123.472 207.53 124.002 208.765 123.825C210.089 123.649 210.354 124.355 210.265 125.502C210.177 126.649 210.265 127.884 210.265 129.031C210.265 130.531 210.971 131.325 212.471 131.325C213.53 131.325 213.971 131.59 213.883 132.737C213.883 133.178 213.883 133.973 214.148 133.884C216.354 133.355 217.677 135.737 219.795 135.384C220.766 135.208 221.56 135.473 221.384 136.796C221.207 137.767 221.648 138.032 222.619 138.032C228.796 138.032 234.972 138.032 241.149 138.032C242.208 138.032 242.649 137.679 242.473 136.62C242.385 135.737 242.738 135.296 243.708 135.296C244.767 135.296 246.179 135.914 246.797 134.149C246.885 133.973 247.855 133.973 248.473 133.973C249.532 134.061 250.238 133.796 249.973 132.561C249.797 131.59 250.326 131.237 251.209 131.325C252.532 131.414 253.856 131.325 255.179 131.325C256.238 131.414 256.679 131.061 256.591 130.002C256.326 128.325 256.856 127.443 258.709 127.796C259.944 127.972 260.121 127.355 260.209 126.296C260.209 123.825 260.297 123.737 262.856 123.913C264.533 124.002 265.327 123.56 265.062 121.796C264.886 120.825 265.239 120.207 266.386 120.384C267.445 120.56 267.798 120.031 267.709 118.972C267.621 117.648 268.504 116.766 269.827 116.854C271.327 116.942 271.327 116.148 271.239 115.089C271.239 112.619 270.974 112.795 273.445 112.883C274.769 112.972 275.386 112.619 275.21 111.207C275.033 109.883 275.386 109.089 276.975 109.354C278.475 109.618 279.004 108.913 278.739 107.501C278.475 105.736 279.092 105.03 280.857 105.383C281.828 105.559 282.357 105.118 282.269 104.059C282.181 103.353 282.269 102.559 282.269 101.853C282.269 99.2944 282.269 99.2944 284.828 99.2062C285.975 99.2062 286.416 98.765 286.328 97.7061C286.151 96.2943 286.151 94.9707 288.357 95.1472C289.063 95.2354 290.034 94.353 289.858 93.2059C289.681 92.0588 290.21 91.5294 291.358 91.7058C292.593 91.8823 293.211 91.4411 292.946 90.2058C292.593 88.2645 294.27 86.7644 293.917 84.8231C293.74 84.1172 294.622 84.2055 295.064 84.2055C296.299 84.3819 296.652 83.676 296.476 82.6171C296.211 81.0288 297.799 79.7935 297.446 78.1169C297.27 77.411 298.152 77.4992 298.593 77.4992C299.829 77.6757 300.005 77.058 300.005 75.9109C300.005 73.7049 300.535 73.1755 302.652 73.0873C303.535 73.0873 303.976 72.8225 303.976 71.8519C303.888 71.146 303.976 70.3518 303.976 69.6459C303.976 68.6753 303.799 67.6164 304.152 66.8222C304.594 66.0281 305.741 66.5575 306.623 66.4693C307.241 66.381 307.505 66.1163 307.505 65.4986C307.505 65.0574 307.505 64.6162 307.505 64.175C307.505 61.7926 307.329 61.9691 309.623 62.0573C311.035 62.1455 311.653 61.7043 311.476 60.2925C311.388 59.6748 311.476 58.9689 311.476 58.3512C311.564 57.4688 311.123 56.4982 311.653 55.7923C312.182 55.0864 313.153 55.5276 313.947 55.5276C314.918 55.5276 314.918 54.9099 314.918 54.204C314.918 52.7039 315.006 51.1156 314.918 49.6155C314.829 48.3801 315.271 47.8507 316.506 48.0272C318.006 48.2919 318.712 47.6742 318.447 46.1742C318.182 44.7623 318.888 44.4976 320.212 44.4976C322.594 44.5858 322.418 44.8506 322.418 42.2916C322.418 41.0563 322.506 39.8209 322.418 38.5855C322.33 37.4384 322.771 36.909 323.918 37.0855C325.506 37.3502 326.301 36.8207 325.948 35.056C325.771 33.9971 326.124 33.2912 327.359 33.5559C328.33 33.7324 328.595 33.2029 328.595 32.3205C328.595 31.1734 328.065 29.7616 329.742 29.3204C329.83 29.3204 329.918 28.7909 329.83 28.5262C329.742 27.3791 330.095 26.8497 331.242 27.0261C332.477 27.2026 332.477 26.4085 332.477 25.5261C332.566 22.7024 332.566 22.7024 335.124 22.173C335.83 22.0847 336.007 21.82 336.007 21.2023C335.919 19.4375 336.801 18.5551 338.566 18.6434C339.625 18.7316 340.066 18.3787 339.978 17.3198C339.801 16.1727 340.419 15.9962 341.389 15.9962C342.801 16.0844 344.213 16.0844 345.537 15.9962C346.684 15.9079 347.213 16.2609 347.037 17.4963C346.684 19.3493 347.654 19.7023 349.243 19.614C350.743 19.5258 351.714 21.3788 350.919 22.7024C350.566 23.3201 350.037 23.1436 349.508 23.0554C348.537 22.9671 348.272 23.4966 348.272 24.379C348.272 27.2026 348.184 29.9381 348.272 32.7617C348.36 34.2618 347.831 34.703 346.419 34.6148C344.213 34.5265 344.301 34.2618 344.301 36.7325C344.301 38.8503 344.125 41.0563 344.39 43.0858C344.566 44.8506 343.154 46.0859 343.331 47.7625C343.419 48.2919 342.713 48.2919 342.272 48.2037C340.86 48.0272 340.772 48.7331 340.772 49.8802C340.86 52.3509 340.684 54.9099 340.86 57.3806C340.948 58.7924 340.595 59.3219 339.095 59.2336C336.713 59.0571 336.889 58.8807 336.889 61.5279C336.889 64.0868 336.801 66.6458 336.889 69.2047C336.889 70.3518 336.536 70.8813 335.389 70.7048C333.713 70.4401 333.271 71.0578 333.271 72.7343C333.448 75.9992 333.271 79.1758 333.36 82.4407C333.36 83.3231 332.918 84.3819 334.595 84.3819C336.183 84.3819 335.919 83.4995 336.007 82.5289C336.095 80.7641 337.242 79.264 336.978 77.411C336.889 76.7051 337.683 76.7933 338.213 76.8816C339.625 77.058 340.242 76.5286 339.978 75.0285C339.713 73.4402 340.507 73.0873 341.831 73.2637C343.243 73.5285 343.684 72.8225 343.507 71.4989C343.331 69.9989 343.595 68.94 345.537 69.293C346.684 69.4694 347.213 69.0282 347.037 67.8811C346.772 66.2928 347.302 65.4986 348.978 65.8516C350.743 66.2046 351.184 65.4104 351.008 63.8221C350.919 63.2044 351.008 62.4985 351.008 61.8808C351.008 59.4983 351.008 59.4983 353.39 59.3219C354.449 59.2336 354.625 58.7924 354.537 57.91C354.272 56.3217 354.802 55.3511 356.655 55.704C358.243 55.9688 358.773 55.2628 358.508 53.7628C358.331 52.5274 358.861 51.998 360.096 52.1745C361.596 52.4392 362.302 51.9097 362.038 50.3214C361.861 48.9978 361.949 47.9389 363.802 48.2037C364.244 48.2919 364.773 48.0272 364.685 47.4978C364.244 45.6447 366.008 44.2329 365.655 42.3799C365.391 40.968 366.097 40.5268 367.42 40.7033C369.273 41.0563 369.979 40.2621 369.626 38.4091C369.45 37.5267 369.891 36.9972 370.862 37.1737C372.097 37.3502 372.362 36.7325 372.273 35.6736C372.273 34.2618 373.156 33.5559 374.479 33.6441C375.803 33.7324 376.421 33.3794 376.244 31.9676C376.068 30.4675 376.95 29.6733 378.362 29.6733C379.421 29.6733 379.774 29.4086 379.774 28.3497C379.686 26.8497 380.568 26.0555 382.068 26.1437C383.303 26.232 383.303 25.6143 383.303 24.6437C383.392 22.2612 383.392 22.173 385.686 22.173C386.745 22.173 387.274 21.9965 387.274 20.7611C387.274 19.3493 388.157 18.5551 389.568 18.6434C390.363 18.6434 390.892 18.4669 390.715 17.5845C390.539 16.3491 391.068 15.9962 392.304 15.9962C394.598 15.9962 394.598 15.9079 394.686 13.702C394.686 13.1725 394.422 12.3784 395.127 12.2019C396.01 12.0254 397.069 11.8489 397.951 12.2901C398.657 12.6431 398.304 13.702 398.216 14.3196C398.128 15.6432 398.481 16.2609 399.892 16.0844C401.481 15.8197 401.834 16.6139 401.745 18.0257C401.657 20.4964 401.657 23.0554 401.745 25.5261C401.745 26.7614 401.392 27.3791 400.157 27.1144C398.392 26.7614 398.128 27.7321 398.128 29.2321C398.216 31.4381 398.128 33.6441 398.128 35.8501C398.128 36.8207 397.951 37.3502 396.804 37.2619C395.127 37.1737 394.51 38.1443 394.598 39.6444C394.598 41.1445 394.598 42.5563 394.598 44.0564C394.598 45.1153 394.422 45.8212 393.186 45.5565C391.774 45.2918 391.245 45.9977 391.51 47.233C392.039 49.8802 390.627 52.2627 390.627 54.8216C390.627 55.8805 389.833 55.704 389.215 55.704C388.245 55.6158 387.98 56.057 387.98 57.0276C388.068 58.616 387.98 60.2925 387.98 61.8808C387.98 62.9397 387.627 63.2927 386.568 63.2927C383.921 63.3809 383.921 63.3809 383.921 66.0281C383.921 67.9694 383.921 69.9989 383.921 71.9401C383.921 73.4402 383.215 74.2344 381.715 74.2344C380.656 74.2344 380.303 74.5873 380.303 75.6462C380.391 76.6168 380.127 77.5875 380.391 78.4699C380.833 80.4112 379.421 81.9995 379.421 83.8525C379.421 84.4702 378.803 84.4702 378.45 84.3819C376.95 84.1172 376.774 84.9996 376.862 86.235C376.862 86.6762 376.774 87.1174 376.862 87.5586C377.391 90.0293 375.891 92.2353 375.979 94.706C375.979 95.4119 375.45 95.5884 374.921 95.5001C372.979 95.1472 372.803 96.2061 372.891 97.7944C372.979 99.8239 372.803 101.942 372.979 103.971C373.068 105.295 372.715 105.912 371.303 105.736C369.714 105.471 369.361 106.265 369.45 107.677C369.538 110.501 369.361 113.413 369.538 116.236C369.626 117.737 369.097 118.089 367.685 118.089C365.479 118.001 365.567 117.825 365.567 120.207C365.567 127.002 365.655 133.884 365.479 140.679C365.479 142.355 365.92 142.973 367.597 142.708C369.097 142.444 369.803 143.061 369.538 144.65C369.45 145.179 369.538 145.709 369.538 146.15C369.538 147.12 369.361 148.179 369.714 148.973C370.156 149.768 371.303 149.238 372.185 149.326C373.42 149.415 373.068 150.297 373.068 150.915C372.891 152.503 373.509 152.856 375.009 152.856C380.921 152.768 386.745 152.768 392.657 152.856C394.069 152.856 394.951 152.679 394.686 151.003C394.422 149.679 395.039 149.238 396.363 149.238C398.922 149.326 401.481 149.326 404.04 149.238C405.187 149.238 405.893 149.415 405.716 150.738C405.451 152.415 406.157 153.032 407.746 152.768C408.893 152.591 409.334 153.032 409.246 154.268C409.158 155.768 409.158 157.356 409.246 158.856C409.334 160.092 408.805 160.356 407.746 160.356C405.893 160.268 404.304 161.68 402.363 161.327C401.481 161.15 401.657 162.209 401.745 162.651C401.922 164.062 401.304 164.415 399.981 164.327C396.539 164.239 393.098 164.327 389.657 164.327C388.157 164.327 387.098 164.857 387.186 166.533C387.274 167.68 386.745 167.945 385.774 167.857C384.274 167.768 382.862 167.768 381.362 167.857C380.038 167.945 379.421 167.592 379.597 166.18C379.862 164.592 379.068 164.239 377.656 164.327C374.215 164.415 370.773 164.327 367.332 164.415C366.097 164.415 365.302 164.239 365.567 162.739C365.744 161.592 365.214 161.062 364.067 161.239C362.479 161.503 361.685 160.974 362.038 159.209C362.302 157.886 361.596 157.444 360.449 157.709C358.861 157.974 358.331 157.268 358.508 155.768C358.684 154.532 358.243 154.091 356.92 154.18C354.537 154.18 354.537 154.091 354.537 151.709C354.537 151.091 354.537 150.562 354.537 149.944C354.537 148.973 354.802 147.915 354.361 147.12C353.92 146.238 352.772 146.856 351.89 146.767C350.478 146.679 351.008 145.62 351.008 144.914C350.743 138.561 350.743 132.384 350.743 126.119ZM332.213 86.1467C332.301 85.1761 332.301 84.4702 330.889 84.4702C329.301 84.4702 329.565 85.4408 329.565 86.3232C329.565 87.2056 329.389 87.9998 330.889 87.9998C332.566 87.9998 332.213 87.0291 332.213 86.1467Z" fill="black"/>
<path d="M409.069 124.355C409.069 124.884 408.981 125.413 409.069 125.855C409.246 127.443 408.893 128.414 406.952 128.061C405.804 127.884 405.275 128.414 405.451 129.561C405.804 131.414 404.834 131.855 403.245 131.59C401.745 131.325 401.392 132.031 401.481 133.443C401.569 135.649 401.745 135.561 399.363 135.561C398.304 135.561 397.157 135.473 396.098 135.561C394.686 135.737 394.245 135.12 394.422 133.796C394.598 132.296 394.333 131.237 392.392 131.59C390.892 131.855 390.186 131.237 390.451 129.737C390.715 128.325 390.01 127.884 388.686 128.061C387.186 128.325 386.745 127.619 386.921 126.208C387.009 125.06 386.921 123.825 386.921 122.678C386.921 121.266 387.627 120.472 388.951 120.56C390.362 120.648 390.627 119.943 390.451 118.795C390.186 117.207 390.98 116.678 392.48 116.942C394.157 117.207 394.774 116.501 394.51 114.913C394.245 113.413 394.863 112.795 396.451 112.972C397.598 113.06 398.833 113.06 399.981 112.972C401.392 112.795 401.745 113.413 401.657 114.736C401.569 117.207 401.481 117.119 403.863 116.942C405.451 116.854 405.716 117.56 405.628 118.884C405.54 119.59 405.363 120.472 406.687 120.56C409.158 120.737 409.158 120.825 409.158 123.207C409.069 123.649 409.069 124.002 409.069 124.355Z" fill="black"/>
</svg>
