<svg xmlns="http://www.w3.org/2000/svg" viewBox="0 0 631.09 138.01"><g id="Layer_2" data-name="Layer 2"><g id="Layer_1-2" data-name="Layer 1"><path d="M122.37,33.27c-4.89-.12-3.16-3.72-3.24-6.11-.07-2.23-1-2.51-2.9-3.46-2.63-1.35-3.69-5.16-7.07-6.21-.21-.06-.09-1.25-.1-1.91,0-1.34-.08-2.67,0-4,.12-1.9-.64-2.6-2.58-2.66-2.77-.07-6.56,1.5-6.93-3.51,0-.14-.57-.39-.83-.35C94.25,5.74,95.15,2.5,95,0H47c.45,3.56-.48,5.64-4.71,5-1.92-.28-4.32-.87-4.54,2.7-.14,2.14-2.42,1-3.73,1.19-2.78.35-6.75-1.35-6.24,4.08.06.69-.81,1-1.51.93-2.17-.18-2.42,1.15-2.35,2.83,0,1,0,2.22-1.41,2.11-2.77-.24-4,.86-3.64,3.64a1.1,1.1,0,0,1-1.13,1.33C13,23.26,14,26.6,14,29.27c0,2.09.17,4.18-3,3.7a3.3,3.3,0,0,0-.95.08c.3,4.09-5.34,4.53-5.17,8.75.21,5,0,5-4.87,5.19V76c9.05.14,9.05.14,9.05-9.08,0-1.83,0-3.67,0-5.5,0-2.29-.55-4.93,3.29-4.42,1.3.17,1.68-.77,1.69-1.9,0-1.5,0-3,0-4.49,0-.84-.14-2.31.13-2.4,2.89-.92,4.58-4.21,6.82-4.81,3.07-.82,3.13-2.12,3-4.36,0-1.33,0-2.67,0-4,0-1.09.28-2,1.64-2,1.65.08,2.55-.58,2.33-2.32C27.76,28.45,29,27.84,31,28c1.46.14,1.62-.84,2.19-2,1.36-2.71,6.13-2.63,5.89-6.88,1.83,0,3.66-.07,5.48-.13,1.16,0,2.65.1,2.45-1.62C46.54,13.66,49,14,51.36,14c2.8,0,6.32,1.07,5.88-3.94-.08-1,1.14-1,1.95-1,6.49,0,13,0,19.48,0,1.29,0,2.45.25,2.25,1.86-.42,3.43,1.82,3.18,4.07,3.15,2.54,0,5.62-.8,5.11,3.67-.16,1.35,1.23,1.28,2.2,1.3,1.84,0,3.67.05,5.5,0,1.37,0,2.27.43,2.14,2-.15,1.93.37,2.9,2.63,3.18,2.48.3,1.2,2.66,1.34,4.11.24,2.34-.76,5.33,3.48,4.8,1.33-.17,1.54.95,1.55,2,0,1.83,0,3.67,0,5.5,0,1.21,0,2.56,1.73,2.36,3.27-.39,3.31,1.55,3.29,4-.07,11.49,0,23,0,34.47,0,1.85.3,3.88-2.63,3.54-2.14-.24-2.42,1.09-2.38,2.79,0,2.49,0,5,0,7.49s.8,5.14-3.44,4.85c-2.32-.16-1.31,2.17-1.54,3.47-.4,2.26,1.4,5.75-3.24,5.6-.22,0-.72.8-.67,1.17.58,4.44-2.44,3.66-5,3.58,0-8.45-.06-16.9,0-25.35,0-2.19,0-4-3.07-3.65-1.56.21-1.95-.83-1.94-2.17,0-3.17,0-6.33,0-9.5,0-1.36.41-2.36,2-2.15,3.06.41,3.08-1.51,3-3.68-.06-4.16,0-8.32,0-12.49,0-1.27-.3-3,1.77-2.81,3.34.35,3.29-1.67,3.24-4-.09-4.17,0-8.33,0-12.5,0-1.39,0-2.86-2-2.6-3.13.4-3-1.6-3-3.72C94.94,24,94.89,24,89.7,24c-2.43,0-5.33.71-4.74-3.52.19-1.35-1.07-1.45-2.08-1.46q-9.5,0-19,0c-.33,0-.94,0-1,.12-.56,3.36-3.53,4.26-5.55,6.2-1.31,1.27-1.94,2.75-4.07,2.75-.4,0-1.18.5-1.16.69.43,3.52-1.54,4.45-4.56,4.56C47,33.32,47,34.37,47,35s-.18,2.27-.4,2.3c-5.21.61-3.31,4.58-3.61,7.48-.11,1-.17,2.25-1.5,2.06-4.27-.6-3.48,2.36-3.5,4.76,0,2.71.89,5.72-3.82,5.57-2-.06-1,2.42-1.14,3.75-.24,2.48.86,5.73-3.68,5.1a1.08,1.08,0,0,0-1.27,1.19c.25,2.58-.69,3.92-3.46,4-.75,0-.58,1.4-.64,2.22s.13,2.42-1.19,2.29c-4.76-.46-3.83,2.82-3.79,5.5,0,2.14.09,4.1-3,3.7-2-.25-2,1.23-2,2.62q0,14.49,0,29c0,1.19,0,2.6,1.7,2.39,3.84-.47,3.3,2.14,3.28,4.44,0,2.45-.66,5.34,3.53,4.71,1-.15,1.55.67,1.42,1.59-.53,3.79,2.08,3.62,4.37,3.27,4.22-.65,5.19,1.42,4.73,5H85c.14-4.94.14-4.94,5.21-4.95h5.49c2.3,0,4.92.51,4.39-3.3a1.3,1.3,0,0,1,1.39-1.63c2.41.17,2.72-1.26,2.59-3.13-.11-1.57.81-1.9,2.17-2,3.35-.14,3.52-5.48,7.5-4.66A22.24,22.24,0,0,0,114,116c0-1.49,0-3,0-4.49,0-1.22.07-2.55,1.75-2.34,3.89.48,3-2.23,3.3-4.46.17-1.57-1.26-4.16,1.51-4.46,2.5-.27,2.44-1.6,2.44-3.34q0-30.45,0-60.91C123,35,123.26,33.3,122.37,33.27ZM78.36,57h-3c-2.32,0-4.64-.05-7,0C66.78,57,66,56.44,66,54.69s.48-2.75,2.52-2.66c3.14.12,2.3,0,5.44,0,1.84,0,3.35-.12,3.08-2.59-.1-.91,1.45-1.63,3.12-2,0,.61-.06,1.14-.1,1.49-.43,3.37,1.71,3.25,4,3.18l1,0C85.31,57,84.59,57,78.36,57ZM68.82,33c2.32.06,4.64,0,7,0h2.49c5.87,0,7.38.68,7.07,4.94H83.19c-1.84,0-3.35.11-3.08,2.58,0,.45.09,1.24.11,2.16C78.58,42.5,77,42,77.1,41.12c.42-3.36-1.71-3.24-4-3.18-2.82.08-1.64,0-4.45,0C66.77,38,66,37.4,66,35.42,66,33.27,67.13,33,68.82,33Zm22.53,86c-.38,0-1.19.42-1.19.65,0,5-3.74,3-6.09,3.19-2.81.25-5.66.06-8.49.06-2.45,0-5.26-.68-4.75,3.53.2,1.69-1.49,1.44-2.58,1.45-7.49,0-15,0-22.48,0-1.77,0-3-.37-2.73-2.45s-.74-2.44-2.59-2.63c-2.94-.31-7.26,2.06-7.93-3.51a.47.47,0,0,0-.37-.28c-5.88.54-4-3.85-4.06-6.68-.15-8,0-16-.06-24,0-2,0-3.74,2.77-3.43,1,.11,2.22,0,2.16-1.36-.1-2.36,1.21-2.66,3.12-2.65,3.63,0,.72-3.91,2.8-4.79,1.54-.65,4.4.91,4.19-2.62,0-.63.06-1.8.3-1.85,6.73-1.57,2.82-6.89,3.57-10.45.48-2.3-.18-4.79,3.5-4.31,1.34.18,1.58-.91,1.59-2,0-1.83,0-3.66,0-5.49,0-.94-.22-2.32,1.18-2.31,2.47,0,3.85-.55,4.15-3.43.13-1.22,2.66-1.11,3.53-.48,2.05,1.49.73,3.95,1,6,.17,1.36.07,2.9-1.91,2.66-3-.37-3,1.48-3.08,3.66-.27,10.48-.31,10.48,10.24,10.48,3.5,0,7,.16,10.49,0,2.7-.16,3.38.92,3.34,3.45-.13,7.32,0,14.65,0,22,0,1.79-.42,3.79,2.53,3.71,1.74-.05,1.42,1.51,1.45,2.6,0,2.33,0,4.66,0,7s-.4,4.88,3.35,4.37a1.28,1.28,0,0,1,1.58,1.43c-.53,4.53,2.66,3.42,5.07,3.51C94.91,116.53,95.84,119.66,91.35,119.06Z"/><path d="M631,75c0-1.62.79-4.34-2.27-3.75-2.35.46-6.5-2.63-6.77,2.75-.11,2.35-1.54,2.08-3.06,2.11-2.07,0-1.85-1.45-1.86-2.76,0-2.83-.06-5.67,0-8.5,0-1.75-.35-3-2.44-2.72-2.47.28-2.52-1.26-2.6-3.1-.3-6.91-.35-6.91-7.26-6.91-1.33,0-2.68.1-4,0-4-.36-2.18,7.09-7.27,5.44-.39-.13-.51,1.42-.52,2.24,0,1.17,0,2.33,0,3.5s.32,2.74-1.79,2.82c-2.47.11-2.06-1.6-2.09-3,0-2.5-.49-5.12.09-7.48,1.19-4.84-7.56-2.55-5.3-7.82-.6-.21-1.2-.43-1.81-.63a1.68,1.68,0,0,0-.5,0c-4.67,0-9.33,0-14,0-1.12,0-2.69-.17-2.5,1.56.41,3.65-1.86,3.45-4.33,3.46-2.7,0-6.44-1.3-5.9,3.85,0,.3-.59,1-.89.95-2.4-.1-3.22,1-3,3.33.19,2.09-1.46,1.73-2.76,1.82-1.5.09-2.11-.59-2.08-2,0-1.83,0-3.66,0-5.5,0-1.18,0-2.56-1.69-2.39-2.65.26-3.6-.86-3.35-3.41.13-1.31-.82-1.62-2-1.62s-2.11.18-2,1.53c.16,2.4-.46,3.86-3.26,3.49-1.23-.17-1.91.59-1.76,1.8.46,4-2.38,3.28-4.54,3.09s-5.87,1.66-5.44-3.19c.06-.71-.2-1.51-.9-1.58-2.47-.24-5.15-.79-7.38.22-1.62.73-.59,3-.76,4.62-.11,1,0,2-.05,3,0,.82-.07,2-1.15,1.84-4.71-.49-3.75,2.78-3.86,5.48-.06,1.45.83,3.82-2,3.6-3.64-.29-2.8,2.18-3,4.22-.29,2.38,1.68,6-3.23,6.12-.83,0-.61,1.37-.78,2.16-.55,2.62-3,1.92-3.92,1.28-1.95-1.43-.7-4-.9-6-.12-1.1-.2-2.69,1.51-2.51,3.61.39,3.42-1.81,3.51-4.3s-1.55-6,3.29-6.08c.67,0,.64-1.41.64-2.23,0-3,0-6,0-9,0-1.16.09-2.48-1.61-2.51-2,0-5.1-.8-5.79.15-1.87,2.58-4.56,4.26-6.32,6.51-1.23,1.58-1.27,3.61-4,3.36-1-.09-1.41.76-1.36,1.66.1,1.77-.75,2.39-2.42,2.22-2.15-.23-1.41-1.92-1.47-3.08a67.91,67.91,0,0,1,0-7c.12-2.42,0-4.37-3.29-3.95-1.27.17-1.85-.72-1.7-1.86.41-3-1.37-3.19-3.61-3.11-2.67.09-5.33,0-8,0-1.5,0-2.62.23-2.54,2.14.06,1.28.28,2.94-1.79,2.81-2.6-.17-5.8,1.22-7.63-.76-1.41-1.52-.57-4.47-.34-6.76.21-2,2-1.21,3.21-1.33,1.35-.14,1.63-.91,1.64-2,0-2,0-4,0-6,0-1-.19-2.2-1.54-2-4.23.53-3.4-2.43-3.43-4.8s0-4.67,0-7c0-1.3-.28-2.42-1.88-2.23-3.47.42-3.09-1.9-3.13-4.1C445.89,4.6,445.87,4.6,435.3,5h-.5c-1.63-.09-3,.08-2.87,2.29C432,9,430.74,9,429.53,9s-2.51.05-2.43-1.66C427.24,4.7,425.39,5,423.76,5h-15.5c-5.33,0-10.66,0-16,0-1.08,0-3-.45-3,.84-.17,4.66-3.54,2.85-5.79,3.09-2,.21-4,0-6,.07-.94,0-2.44-.2-2.32,1.14.41,4.71-2.79,3.76-5.51,3.87-1.44,0-3.81-.84-3.59,2,.28,3.65-2.17,2.87-4.23,3-2.63.19-6.5-1.47-6,3.79,0,.32-.57,1-.83,1-2.74-.26-3.34,2.56-4.63,3.27-2.51,1.39-3.69,2.52-3.69,5.22,0,.21-.82.65-1.21.6-2.9-.35-3.82,1-3.6,3.73.08,1.05-.81,1.43-1.7,1.31-3.34-.46-3.2,1.65-3.28,4-.05,1.65,1,4.72-1.05,4.74-5.12,0-3.63,3.38-3.92,6.07-.17,1.45,1.1,3.9-1.4,4.08-2.92.2-2.55,1.95-2.56,3.74,0,8.16-.06,16.33,0,24.49,0,2.21-1.18,5.26,3.08,5.27,1.12,0,.78,1.6.89,2.54.36,3.14-1.82,7.76,4.36,7.53.12,0,.35.21.35.33.11,5.13,4,3,6.52,3.31,2,.23,4.23-.33,3.8,2.94-.26,1.92,1,2.11,2.52,2.11,7.66,0,15.33,0,23,0,1.14,0,2.66.14,2.48-1.6-.44-4.21,2.51-3.2,4.85-3.43,1.7-.16,4.65,1,4.87-.92.49-4.21,3.25-3,5.44-3,2.37,0,4.23,0,4-3.29-.25-3.51,4.68-.06,4.86-3.31,0-.66,0-1.33.07-2,.24-2.92-1.55-7.1,4.18-6.65.62,0,.78-1,.81-1.63,0-1,.08-2.18,1.48-2.09,3,.18,2.49-1.92,2.52-3.68a21.52,21.52,0,0,0,0-3.5c-.61-4.17,7.24-2.11,5.36-7.31-.13-.36,1.4-.58,2.23-.58,6.33,0,12.66,0,19,0,1.67,0,2.41.58,2.35,2.32-.05,1.46-.15,2.81-2.07,2.56-3.19-.42-3,1.68-2.95,3.74,0,7.17.06,14.33,0,21.49,0,2.41,0,4.39,3.29,3.94.9-.12,1.73.34,1.66,1.37-.22,2.95,1.82,2.57,3.63,2.58,2.16,0,4.41.39,6.48-.07,5.13-1.13,11.67,3.41,15.38-3.79.33-.63,2.63.29,2.56-1.49-.1-2.67.73-4,3.62-3.71,1,.12,1.24-.68,1.51-1.56,1-3.29,3-4.07,7.8-3.36,3.66.54,2.33,3.59,1.94,5-1.34,5,4.27,5.39,5.49,8.73.3.83,4.67.21,7.16.17,2.13,0,1.36-1.87,1.75-3a1.45,1.45,0,0,1,1.57-.9c3.5,0,7,0,10.49,0,1.3,0,1.41.89,1.76,1.91.69,2,9.47,3.12,9.64,1.35.47-4.88,3.83-3.14,6.22-3.22s3.34-.53,3.24-3c-.15-3.46,3.14-1.23,4.45-2.43s-1-4.59,2.4-4.52c2.37,0,3.39-.71,3.12-3.13-.17-1.54.75-2,2.17-1.92,1.75,0,1.68,1.23,1.69,2.4,0,2.67,0,5.34,0,8s-.49,5.26,3.58,4.68c1-.15,1.46.7,1.4,1.63-.16,2.22,1.27,2.28,2.89,2.28,7.5,0,15,0,22.5,0,.93,0,2.47.26,2.5-.91.14-4.68,3.58-2.78,5.81-3s5,.65,4.47-3.27c-.17-1.25.65-1.86,1.83-1.73,2.32.24,3.45-.59,3.16-3.06-.18-1.51.68-2,2.12-2,1.74,0,1.73,1.17,1.74,2.37,0,1,0,2,0,3,0,2.47-.63,5.35,3.53,4.7a1.1,1.1,0,0,1,1.35,1.11c-.19,3.63,2.46,2.75,4.44,2.8a63.27,63.27,0,0,0,8.49-.06c2.45-.28,6.44,2,6.58-3.24,0-.62,1.06-.76,1.71-.65,4.06.66,2.22-3.13,3.49-4.5s5.18.64,4.54-3.48c-.12-.79,0-2,1-1.9C631.72,90.5,631,88,631,86,631.07,82.28,631.11,78.61,631,75ZM414.17,28.15A1.09,1.09,0,0,0,413,29.47c.32,2.82-.92,3.86-3.67,3.66C408,33,408,34.29,408,35.28c0,1.5,0,3,0,4.5,0,1.69.22,3.49-2.39,3.29-.31,0-.89.09-.91.22-1.2,6.13-6,3.46-9.38,3.64C389,47.27,387.51,49,389,55.4c.27,1.21.78,1.84,1.94,1.68,3-.42,3.14,1.45,3.07,3.65-.08,2.5-.06,5,0,7.5,0,1.7-.23,3-2.38,2.78-2.41-.28-2.72,1.13-2.66,3s-.06,4-.1,6c-3.6-.16-3.18,5.11-6.82,5s-.89,3.8-2.82,4.77c-1.49.75-4.51-1-4.21,2.57.2,2.43-1.17,2.67-3.07,2.64-3.66-.07-7.33,0-11,0-2.84,0-5.67,0-8.5,0-2.64,0-6.06,1-5.49-3.78a1.08,1.08,0,0,0-1.32-1.13c-4.11.62-3.59-2.17-3.57-4.68,0-5.33.07-10.67,0-16,0-2.11.21-3.58,2.88-3.35s1.91-2,2.16-3.47c.39-2.23-1.58-5.68,3.14-5.72,1.12,0,.79-1.63.85-2.57s.09-2.28,1.45-2.1c4.14.57,3.58-2.21,3.56-4.7,0-2.26-.64-5,3.25-4.44.9.12,1.75-.33,1.66-1.36-.26-2.75.81-4,3.63-3.67a1.1,1.1,0,0,0,1.34-1.13c-.57-4.77,2.81-3.8,5.47-3.78,2.14,0,4.16.07,3.67-3,0-.16,0-.47,0-.48,3.27-.92,4.52-4.89,7.9-5.44a39.74,39.74,0,0,1,7-.06c2.2,0,4.49.36,4.11-3.12-.22-2,1.39-1.88,2.72-1.88,6,0,12,.08,18,0,2.33-.05,3.44.64,3.14,3.08C417.65,24.78,419.46,28.68,414.17,28.15ZM437,31c0,2.16,0,4.31,0,6.46v2c0,7.17,0,7.23-7,7.56-1.92.08-3.27.31-3,2.67.19,1.63-.46,2.45-2.25,2.35s-1.84-1.39-1.58-2.45c.59-2.38-2.22-6.11,3.07-6.81,1.77-.23.69-3.21.84-4.92.2-2.34-.77-5.27,3.44-4.79,1.69.19,1.65-1.31,1.57-2.45-.13-2,.83-2.48,2.68-2.51C437,28.06,437,29.4,437,31Zm20.84,54.09c-.84-.1-1.87.17-1.74,1.23.54,4.29-2.33,3.83-4.45,3.73-5.29,0-7.1-2.8-5.52-7.57.23-.7.52-1.33,1.25-1.23,4.34.58,3.73-2.42,3.7-5,0-.82,0-1.65,0-2.48,0-1.39,0-2.67,2-2.61,1.57,0,3-.06,2.91,2.22-.07,1.28-.24,3,1.82,2.73,3.92-.43,3.16,2.3,3.15,4.49S461.73,85.54,457.81,85.08Zm72-9.06c-2.63-.33-3.11,1.11-2.93,3.27.07.91-.29,1.7-1.35,1.68-2.14,0-3.91.09-3.82,3.07,0,1.26-1.48,1-2.43.93-1.11-.06-1.22-.92-1.25-1.77s0-1.66,0-3c0-1.71-.81-4.36,3-4.32,1.16,0,.89-1.56.91-2.49.05-3,.08-6,0-9,0-1.72.69-2.34,2.37-2.31,1.51,0,2.63.24,2.54,2.12-.06,1.16,0,2.33,0,3.49-.1,2-.06,3.77,2.74,3.42,1.75-.21,2.31.71,2.28,2.36S531.74,76.27,529.85,76Zm39.06,14c-2.26,0-4.39-.22-4,3.15.23,2-1.36,1.81-2.69,1.86s-2.22-.41-2.15-1.94c0-.49,0-1,0-1.48.05-8-.48-6.3,6.08-6.46,2.59-.07,5.19,0,7.78,0C573.9,89.94,573.85,90,568.91,90Zm5.12-5c-.84-4.52,2.18-4,5-3.85C579.66,85.47,576.79,85.19,574,85.07ZM582.5,81c-1.1.13-2.23.08-3.34.1,0-1.12-.13-2.24-.07-3.35.12-2.1,1.77-1.48,3-1.56s2,.42,1.84,1.71S584.59,80.76,582.5,81Zm34.41,2.24c.07,2.13-1.46,1.73-2.71,1.82-1.78.14-2.28-.79-2.12-2.36.2-2.06,1.79-1.41,3-1.5C616.54,81.07,617.08,81.89,616.91,83.24Z"/><path d="M319.23,113.92c-6.31.36-12.66.2-19,0-2.7-.07-6.86,1.73-6.36-3.89.06-.72-.75-1.07-1.44-1-2.09.15-2.44-1-2.43-2.78.06-7.5,0-15,.05-22.49,0-.93-.25-2.47,1-2.47,3.89,0,3-2.7,3-4.84.07-2.66,0-5.33,0-8,0-1-.09-2.37,1.27-2.23,4.91.47,3.5-3,3.74-5.59.12-1.3-.78-3.58,1.58-3.43,3.7.24,3.46-2,3.41-4.39s0-5,0-7.5c0-1.34.36-2.39,1.93-2.19,3,.4,3.15-1.43,3.08-3.64-.08-2.83,0-5.66,0-8.49,0-1-.24-2.61.75-2.63C314.38,28.31,313,25,313,22.7s.09-4,3.11-3.64c1.57.21,1.94-.85,1.93-2.18,0-3.17,0-6.33,0-9.5,0-1,.08-2.21-1.31-2.25-3.67-.1-7.33-.08-11-.09-2.45,0-1.41,2.15-2,3.28a1.11,1.11,0,0,1-.77.54c-5.55-.54-3.65,3.58-4,6.31-.16,1.25.32,3.73-.79,3.5-5.29-1.08-3.36,6.76-8.07,6.23-.35,0,.54,3-1.51,3-2.68,0-3.95.75-3.72,3.64.13,1.74-1.46,1.52-2.56,1.47-3.56-.13-1.76,2.82-2.55,4.28-1,1.86-4.28-.73-4.75,2.34,0,.16,0,.33,0,.49-.43,2.84,1.72,6.93-3.6,7.44-.14,0-.37.57-.34.84.62,4.44-2.41,3.66-5,3.59,0-3.62-.06-7.24,0-10.86,0-1.21-.46-3.12,1.63-2.92,3.76.37,3.39-2,3.35-4.41s0-4.66,0-7c0-.93-.24-2.47,1-2.46,3.89,0,2.93-2.7,3-4.85.07-2.33-.47-4.79.12-7,1.13-4.12-5.46-2.94-4.32-6.81a2.18,2.18,0,0,0-1.22-.6C268.15,5.16,266,4.16,266,7c0,1.5-.7,2.14-2.13,2-2.08-.21-3.16.53-2.91,2.78.09.81,0,2.11-.88,2-5.36-.43-4,3.39-4.09,6.26-.09,1.9.1,3.2-2.54,4.36-2,.85-3.09,4.09-6.16,4.36a7,7,0,0,0-.29,2.34c0,1.49,0,3,0,4.49,0,1.25-.1,2.54-1.77,2.33-3.33-.41-3.31,1.64-3.25,4s1,5.69-3.57,5.16C237,46.94,237,48.22,237,49.23c-.06.8.27,2.19-.5,2.27-5.08.49-3.35,4.29-3.43,7-.06,2.36-.39,3.9-3.23,3.52-1.22-.16-1.82.54-1.83,1.77,0,1-.08,2.28-1.45,2.09-4.13-.56-3.54,2.2-3.58,4.7s1.14,6-3.73,5.54c-1.35-.14-1.16,1.3-1.24,2.25-.1,1.11.23,2.44-1.54,2.58-3.16.26-3,5.63-7.1,4.6a1.77,1.77,0,0,0-.3.86c.34,2.79-2.15,2.7-3.36,3.9-2.14,2.13-5.91,4.42-6.22,6.25-.7,4-2.77,3.23-5.15,3.46-1.46.14-3.94-1.1-4.15,1.28-.28,3.2-2.25,2.65-4.16,2.66-3.16,0-6.34.16-9.49,0-2.25-.15-5.72,1.55-5.67-3.14,0-.85-1.34-.62-2.11-.83-3.45-.95-3.52-6-7.58-6.31a4,4,0,0,1-.07-1c0-3.16,0-6.33,0-9.49,0-1.41.5-2.29,2-2.1,2.53.32,2.22-1.82,3.22-3,2-2.38,5-3.91,6.42-6.94.07-.14.63-.06,1-.06,7.5,0,15,0,22.49,0,1.71,0,3,.24,2.78,2.38-.28,2.42,1.15,2.69,3.05,2.65,3.17-.08,6.33,0,9.5,0,.95,0,2.28.17,2.38-1.13a45.57,45.57,0,0,0,.06-7.48c-.19-2.38-2.36-1-3.57-1.55-.42-.19-1.12-.52-1.12-.77.1-4.71-3.44-2.85-5.68-3.1-2-.22-4,0-6-.06-1.16,0-2.65.09-2.45-1.63.44-3.74-2-3.39-4.38-3.37-4,0-8,0-12,0-1.07,0-2.82-.33-2.65,1.35.45,4.56-2.75,3.22-5.17,3.7-3.74.74-9.14-2.95-10.83,3.76,0,.13-.63.17-.95.14-1.84-.14-2.34.9-2.19,2.47.19,2-.67,2.72-2.59,2.57-3.54-.27-1.88,2.68-2.6,4.19-.93,2-4.28-.69-4.74,2.33a21.29,21.29,0,0,0-.08,3c0,6.33,0,12.67,0,19,0,2.55-.45,5.29,3.6,4.63,1.09,3.17,5.61,4.67,5.94,6.54.69,4,2.78,3.39,5.15,3.39s4.79-.43,4.41,3.35c-.21,2.1,1.71,1.63,2.92,1.64,6,0,12,0,18,0,1.84,0,3.39-.1,3.1-2.58-.24-2.08,1-2.5,2.73-2.45,2.33.08,4.66,0,7,0s4.65.31,4.37-3.4c-.25-3.31,5.37.26,4.89-3.78-.26-2.16.65-3.08,2.82-2.85,1.37.15,2.27-.37,2.19-1.92s.91-1.6,2-2.17c2.69-1.38,2.64-6.11,6.87-5.91a1.42,1.42,0,0,0,.06-.47c-.4-2.89,1-3.82,3.69-3.6,1,.09,1.44-.79,1.32-1.68-.37-2.76,1-3.49,3.47-3.28a1.33,1.33,0,0,0,1.54-1.5c0-1.53.34-2.58,2.23-2.42,2.5.21,1.65,2.11,1.67,3.39.09,5.16,0,10.33.09,15.49,0,1.42-1.05,3.81,1.56,4s6.66,1.43,8-.71,1.76-3.35,4.29-3.29c1.37,0,1.12-1.34,1.21-2.29.07-.8-.15-2.17.64-2.21,5.09-.26,3-4,3.32-6.57.22-2-.4-4.26,2.91-3.82,1.38.19,2.22-.44,2.13-2-.11-2,1.22-2.08,2.64-2,3.56.19,1.79-2.77,2.56-4.24,1-1.89,4.27.72,4.75-2.34.07-.49,0-1,.06-1.49.4-2.84-1.74-6.91,3.56-7.48.22,0,.41-1.16.44-1.79.07-1.76,1.32-1.57,2.48-1.65,1.62-.12,2.73.46,2.37,2.2-.46,2.22,1.59,6.07-1.44,6.38-4.06.4-3.51,2.49-3.51,4.95,0,12.16-.11,24.33.08,36.48,0,2.85-2.25,7.63,4.08,7.16a1,1,0,0,1,.65.66c-.2,4.2,2.88,3,5.14,3.16,2.5.13,5.57-.93,5.21,3.63-.16,1.95,1.95,1.33,3.12,1.34,5.16.08,10.33,0,15.49.05,2.37,0,4.86.39,4.37-3.36-.17-1.32.86-1.62,2-1.63a25.29,25.29,0,0,1,4,0c3.45.5,4.27-1.12,4.06-4.24C322.92,116.22,323.59,113.66,319.23,113.92ZM239.38,76c-2.15.3-2.33-1-2.35-2.67s.76-2.18,2.35-2.23c1.85,0,2.62.54,2.61,2.49S241.24,76.23,239.38,76Zm26.53-20.51c-.17,2.11-1.84,1.42-3,1.51a1.47,1.47,0,0,1-1.78-1.78c.09-1.19-.61-2.87,1.5-3,1.12-.09,2.24,0,3.36,0C266,53.21,266,54.34,265.91,55.45Z"/><path d="M321.48,90.2c-2.86-.26-3.71-1.24-3.53-3.84.07-1.06-.83-1.32-1.7-1.31-2.15,0-4.37-.25-6.41.23-1.57.37-.56,2.33-1,3.5-.15.41-.58,1.07-.82,1-5.31-.5-3.79,3.36-4.11,6.19-.37,3.26.84,4.43,4.11,4.15,2.21-.19,5.06-1.11,5.22,3.08.05,1.43,4,1.15,4.7-.47.42-1-.22-2.76,1.52-2.56,4.59.52,3.46-2.69,3.6-5.46C322.33,93.46,324.47,90.46,321.48,90.2Z"/></g></g></svg>